<?xml version="1.0" encoding="UTF-8" standalone="no"?>
<!-- Created with Inkscape (http://www.inkscape.org/) -->

<svg
   width="295mm"
   height="130mm"
   viewBox="0 0 295 130"
   version="1.1"
   id="svg1624"
   inkscape:version="1.1 (c68e22c387, 2021-05-23)"
   sodipodi:docname="JotoTitle.svg"
   xmlns:inkscape="http://www.inkscape.org/namespaces/inkscape"
   xmlns:sodipodi="http://sodipodi.sourceforge.net/DTD/sodipodi-0.dtd"
   xmlns:xlink="http://www.w3.org/1999/xlink"
   xmlns="http://www.w3.org/2000/svg"
   xmlns:svg="http://www.w3.org/2000/svg"
   xmlns:rdf="http://www.w3.org/1999/02/22-rdf-syntax-ns#"
   xmlns:cc="http://creativecommons.org/ns#"
   xmlns:dc="http://purl.org/dc/elements/1.1/">
  <defs
     id="defs1618">
    <linearGradient
       id="linearGradient1015">
      <stop
         id="stop1011"
         offset="0"
         style="stop-color:#ffffff;stop-opacity:1" />
      <stop
         id="stop1013"
         offset="1"
         style="stop-color:#ececec;stop-opacity:1" />
    </linearGradient>
    <linearGradient
       id="linearGradient1371">
      <stop
         id="stop1367"
         offset="0"
         style="stop-color:#f0b761;stop-opacity:1;" />
      <stop
         id="stop1369"
         offset="1"
         style="stop-color:#eead4a;stop-opacity:1" />
    </linearGradient>
    <linearGradient
       id="linearGradient1259">
      <stop
         id="stop1255"
         offset="0"
         style="stop-color:#f0b761;stop-opacity:1;" />
      <stop
         id="stop1257"
         offset="1"
         style="stop-color:#eeac49;stop-opacity:1" />
    </linearGradient>
    <linearGradient
       id="linearGradient1827">
      <stop
         id="stop1823"
         offset="0"
         style="stop-color:#eeab48;stop-opacity:1" />
      <stop
         id="stop1825"
         offset="1"
         style="stop-color:#140c02;stop-opacity:0;" />
    </linearGradient>
    <linearGradient
       gradientTransform="matrix(2.433876,0,0,2.433876,-706.38715,-629.61477)"
       gradientUnits="userSpaceOnUse"
       y2="180.28674"
       x2="-39.422256"
       y1="176.42099"
       x1="-38.387569"
       id="linearGradient1501-0-6"
       xlink:href="#linearGradient3569" />
    <linearGradient
       id="linearGradient3569">
      <stop
         style="stop-color:#2d9034;stop-opacity:1"
         offset="0"
         id="stop3565" />
      <stop
         style="stop-color:#50c058;stop-opacity:1"
         offset="1"
         id="stop3567" />
    </linearGradient>
    <linearGradient
       id="linearGradient1007">
      <stop
         id="stop1003"
         offset="0"
         style="stop-color:#ececec;stop-opacity:1;" />
      <stop
         id="stop1005"
         offset="1"
         style="stop-color:#ffffff;stop-opacity:0.96774191" />
    </linearGradient>
    <linearGradient
       inkscape:collect="always"
       xlink:href="#linearGradient3706"
       id="linearGradient3335"
       gradientUnits="userSpaceOnUse"
       gradientTransform="matrix(1.4208856,0.12775388,-0.12775388,1.4208856,-34.048959,-70.802591)"
       x1="86.996231"
       y1="118.36372"
       x2="89.635521"
       y2="115.69103" />
    <linearGradient
       inkscape:collect="always"
       id="linearGradient3706">
      <stop
         style="stop-color:#eeab48;stop-opacity:1;"
         offset="0"
         id="stop3702" />
      <stop
         style="stop-color:#eeab48;stop-opacity:0;"
         offset="1"
         id="stop3704" />
    </linearGradient>
    <linearGradient
       inkscape:collect="always"
       xlink:href="#linearGradient3360"
       id="linearGradient3329"
       gradientUnits="userSpaceOnUse"
       gradientTransform="matrix(1.4208856,0.12775388,-0.12775388,1.4208856,1195.9706,537.59917)"
       x1="-793.80957"
       y1="-216.79596"
       x2="-836.88855"
       y2="-184.92451" />
    <linearGradient
       inkscape:collect="always"
       id="linearGradient3360">
      <stop
         style="stop-color:#f0b761;stop-opacity:1"
         offset="0"
         id="stop3356" />
      <stop
         style="stop-color:#eead4b;stop-opacity:1"
         offset="1"
         id="stop3358" />
    </linearGradient>
    <linearGradient
       inkscape:collect="always"
       xlink:href="#linearGradient1007"
       id="linearGradient3327"
       gradientUnits="userSpaceOnUse"
       gradientTransform="matrix(1.4266173,0,0,1.4266173,795.68599,472.35035)"
       x1="-501.04193"
       y1="-185.18402"
       x2="-492.62259"
       y2="-200.24414" />
    <linearGradient
       inkscape:collect="always"
       xlink:href="#linearGradient1371"
       id="linearGradient3325"
       gradientUnits="userSpaceOnUse"
       gradientTransform="matrix(2.4338761,0,0,2.4338761,50.905125,-745.93599)"
       x1="-48.569443"
       y1="191.71858"
       x2="-46.243595"
       y2="190.75188" />
    <linearGradient
       inkscape:collect="always"
       xlink:href="#linearGradient1371"
       id="linearGradient3323"
       gradientUnits="userSpaceOnUse"
       gradientTransform="matrix(2.4338761,0,0,2.4338761,50.905125,-745.93599)"
       x1="-46.772167"
       y1="191.06104"
       x2="-45.235367"
       y2="190.22583" />
    <linearGradient
       gradientTransform="translate(-24.126579,-26.674261)"
       inkscape:collect="always"
       xlink:href="#linearGradient4421"
       id="linearGradient4423"
       x1="142.62946"
       y1="206.17525"
       x2="150.65903"
       y2="204.20047"
       gradientUnits="userSpaceOnUse" />
    <linearGradient
       inkscape:collect="always"
       id="linearGradient4421">
      <stop
         style="stop-color:#2a1b04;stop-opacity:0.52258062"
         offset="0"
         id="stop4417" />
      <stop
         style="stop-color:#2a1b04;stop-opacity:0;"
         offset="1"
         id="stop4419" />
    </linearGradient>
    <linearGradient
       inkscape:collect="always"
       xlink:href="#linearGradient1259"
       id="linearGradient3319"
       gradientUnits="userSpaceOnUse"
       gradientTransform="matrix(3.4564404,0.33054729,-0.33054729,3.4564404,274.83424,-446.52057)"
       x1="-29.340403"
       y1="188.35547"
       x2="-30.33259"
       y2="188.9933" />
  </defs>
  <sodipodi:namedview
     id="base"
     pagecolor="#ffffff"
     bordercolor="#666666"
     borderopacity="1.0"
     inkscape:pageopacity="0.0"
     inkscape:pageshadow="2"
     inkscape:zoom="0.9899495"
     inkscape:cx="350.01785"
     inkscape:cy="440.93158"
     inkscape:document-units="mm"
     inkscape:current-layer="g1327"
     showgrid="false"
     inkscape:window-width="2560"
     inkscape:window-height="1377"
     inkscape:window-x="-8"
     inkscape:window-y="-8"
     inkscape:window-maximized="1"
     inkscape:snap-nodes="false"
     showguides="false"
     inkscape:guide-bbox="true"
     inkscape:pagecheckerboard="0">
    <sodipodi:guide
       position="88.068451,101.6756"
       orientation="1,0"
       inkscape:locked="false"
       id="guide1227" />
  </sodipodi:namedview>
  <metadata
     id="metadata1621">
    <rdf:RDF>
      <cc:Work
         rdf:about="">
        <dc:format>image/svg+xml</dc:format>
        <dc:type
           rdf:resource="http://purl.org/dc/dcmitype/StillImage" />
      </cc:Work>
    </rdf:RDF>
  </metadata>
  <g
     inkscape:label="Ebene 1"
     inkscape:groupmode="layer"
     id="layer1">
    <g
       aria-label="JOT    BA"
       transform="matrix(0.95978772,0.00310266,-0.02043317,1.041831,1.3984921,-3.0876808)"
       id="text2144-3-7"
       style="font-weight:bold;font-size:72.3801px;line-height:1.25;font-family:'Bauhaus 93';-inkscape-font-specification:'Bauhaus 93 Bold';letter-spacing:0px;word-spacing:0px;display:inline;fill:#34a83c;stroke-width:1.8095">
      <g
         id="g1327">
        <g
           id="g1433"
           transform="matrix(0.99995202,-0.00249251,0.00293794,1.0000407,-0.24559004,0.37950246)">
          <path
             d="m 30.073475,57.569098 q 0,3.604868 -0.353418,10.814605 -0.318077,7.174394 -0.318077,10.779262 0,1.166281 0.07068,3.498843 0.07068,2.332561 0.07068,3.498842 0,9.365589 -1.661066,14.87892 -3.074741,10.03708 -9.754349,16.04519 -0.777521,0.6715 -1.307648,0.6715 -0.459444,0 -0.95423,-0.53013 -1.767092,-2.04983 -5.442644,-6.00811 -2.1205109,-1.80244 -6.2908485,-5.54867 -0.4594439,-0.45945 -0.4594439,-0.81286 0,-0.31808 0.3887602,-0.70684 0.5654696,-0.35342 1.590383,-1.06026 2.9687149,-2.33256 4.2056795,-6.326187 1.1309387,-3.675551 1.1309387,-10.284476 0,-5.584012 -0.424102,-14.278105 Q 9.9286239,59.972344 9.8579403,57.957859 v -0.424102 q -0.035342,-0.883547 0.8128627,-0.883547 1.590383,0 4.80649,0.141368 3.216108,0.141367 4.806491,0.141367 1.484358,0 4.453073,-0.141367 2.968714,-0.141368 4.453072,-0.141368 0.883546,0 0.883546,0.918888 z"
             style="font-family:'Berlin Sans FB';-inkscape-font-specification:'Berlin Sans FB Bold'"
             id="path5773" />
          <path
             d="m 87.362604,81.495527 q 0,10.885288 -7.66918,18.589813 -7.633839,7.66918 -18.519127,7.66918 -10.920629,0 -18.58981,-7.66918 -7.633838,-7.704525 -7.633838,-18.589813 0,-10.92063 7.633838,-18.625152 7.669181,-7.739864 18.58981,-7.739864 10.885288,0 18.519127,7.739864 7.66918,7.704522 7.66918,18.625152 z m -18.095024,0 q 0,-3.428159 -2.367904,-5.866746 -2.332562,-2.473929 -5.725379,-2.473929 -3.4635,0 -5.796062,2.438587 -2.332562,2.438587 -2.332562,5.902088 0,3.357475 2.367904,5.796062 2.403245,2.438587 5.76072,2.438587 3.392817,0 5.725379,-2.403245 2.367904,-2.438587 2.367904,-5.831404 z"
             style="font-family:'Berlin Sans FB';-inkscape-font-specification:'Berlin Sans FB Bold'"
             id="path5775" />
          <path
             d="m 128.00573,70.963657 q 0,0.706837 -0.77752,0.706837 0.88355,0 -8.83546,-0.530128 -0.14137,6.220165 -0.14137,8.022599 0,4.347047 0.35342,13.04114 0.38876,8.694095 0.38876,13.005795 0,1.06026 -1.06026,1.06026 -1.48435,0 -4.52375,-0.14137 -3.0394,-0.17671 -4.5591,-0.17671 -1.44902,0 -4.34705,0.14137 -2.89803,0.14137 -4.34704,0.14137 -1.166284,0 -1.166284,-1.02492 0,-4.3117 0.353418,-13.005795 0.388761,-8.694093 0.388761,-13.04114 0,-1.73175 -0.141368,-7.810547 -3.110082,0.212051 -9.330247,0.77752 -0.565469,-0.247393 -0.565469,-0.318077 0,-0.38876 0.600811,-3.604868 0.671495,-3.498842 0.742179,-4.099653 0.106025,-3.25145 0.706837,-7.810548 0.106025,-0.282735 0.530127,-0.282735 0.141368,0 0.56547,0.07068 7.068369,0.77752 17.388185,0.77752 3.14543,0 11.80418,-0.812862 4.3117,-0.424102 4.62978,-0.424102 1.06025,0 1.06025,0.530128 0,1.272306 -0.1767,3.852261 -0.17671,2.544612 -0.17671,3.816919 0,1.201622 0.31807,3.569526 0.31808,2.367904 0.31808,3.569526 z"
             style="font-family:'Berlin Sans FB';-inkscape-font-specification:'Berlin Sans FB Bold'"
             id="path5777" />
          <path
             d="m 249.47564,90.967141 q 0,6.008113 -4.09965,10.567209 -4.24102,4.70047 -10.14311,4.70047 -3.21611,0 -9.61298,-0.14137 -6.39688,-0.14137 -9.57764,-0.14137 -1.83778,0 -5.51333,0.14137 -3.67555,0.14137 -5.47799,0.14137 -1.16628,0 -1.16628,-1.02492 0,-3.85226 0.42411,-11.556779 0.4241,-7.739864 0.4241,-11.592125 0,-4.02897 -0.38876,-15.373702 -0.10603,-2.933373 -0.38876,-8.729435 l -0.0353,-0.494786 q -0.0707,-0.812863 0.88354,-0.812863 h 24.20916 q 8.90615,0 14.03072,3.463501 2.43858,1.661067 3.8876,4.806491 1.37833,2.968715 1.37833,6.078797 0,2.473929 -2.08517,5.796062 -2.04982,3.322134 -2.04982,2.933374 0,0.282734 0.88354,0.954229 4.41773,3.322134 4.41773,10.284477 z M 229.0834,71.493785 q 0,-2.756664 -5.51333,-2.756664 -1.23696,0 -1.48436,0.56547 -0.10602,0.247392 -0.10602,1.837775 0,1.555042 0.14136,1.90846 0.31808,0.600811 1.66107,0.600811 5.30128,0 5.30128,-2.155852 z m 1.20162,18.095024 q 0,-2.898031 -6.43221,-2.898031 -1.48436,0 -1.7671,0.530127 -0.10602,0.212052 -0.10602,2.014486 0,1.767092 0.17671,2.085168 0.35342,0.56547 1.90846,0.56547 2.89803,0 3.78157,-0.141368 2.43859,-0.459443 2.43859,-2.155852 z"
             style="font-family:'Berlin Sans FB';-inkscape-font-specification:'Berlin Sans FB Bold'"
             id="path5779" />
          <path
             d="m 304.46756,105.74003 q 0,0.49479 -1.41368,0.49479 -1.51969,0 -4.59444,-0.14137 -3.07474,-0.14137 -4.59443,-0.14137 -1.5197,0 -4.52376,0.14137 -3.00406,0.14137 -4.52376,0.14137 -0.91888,0 -1.06025,-1.06026 0,0.0353 0,-1.73175 0,-1.41367 -1.34299,-1.41367 -8.23465,0 -9.64833,0.45944 -1.41367,0.4241 -1.73175,2.1912 -0.28273,1.55504 -1.13094,1.55504 -1.44901,0 -4.34704,-0.14137 -2.89803,-0.14137 -4.34705,-0.14137 -1.41367,0 -4.3117,0.14137 -2.86269,0.14137 -4.27637,0.14137 -1.02491,0 -1.02491,-0.88355 0,-1.06025 16.71669,-48.206274 0.31808,-0.883546 0.56547,-1.060255 0.24739,-0.212051 1.0956,-0.212051 1.23696,0 3.64021,0.318076 2.43859,0.318077 3.67555,0.318077 4.9832,0 6.96234,-0.494786 0.42411,-0.141367 0.60081,-0.141367 0.60082,0 1.41368,1.201623 0.35342,0.530127 2.89803,6.32619 2.01448,4.453072 5.72538,13.465242 1.76709,4.700465 4.73581,14.242763 3.00405,9.542302 4.7358,14.172082 0.10603,0.31807 0.10603,0.45944 z M 280.89455,82.944542 q 0,-2.792005 -3.11008,-4.665123 -3.11009,2.261878 -3.11009,4.665123 0,1.236965 0.91889,2.191195 0.95423,0.918888 2.1912,0.918888 1.2723,0 2.19119,-0.918888 0.91889,-0.95423 0.91889,-2.191195 z"
             style="font-family:'Berlin Sans FB';-inkscape-font-specification:'Berlin Sans FB Bold'"
             id="path5781" />
        </g>
      </g>
    </g>
    <g
       id="g1290"
       transform="matrix(0.93050992,0,0,0.93050992,73.976423,-82.627744)">
      <path
         inkscape:connector-curvature="0"
         id="path879-1-8-9"
         d="m 85.577552,183.17547 c 2.21428,1.5572 4.40665,3.3099 6.41134,6.7383"
         style="display:inline;fill:none;stroke:none;stroke-width:0.518871;stroke-linecap:round;stroke-linejoin:miter;stroke-miterlimit:4;stroke-dasharray:none;stroke-opacity:1" />
      <path
         inkscape:connector-curvature="0"
         id="path881-3-38-9"
         d="m 92.518472,184.83947 c -2.9875,0.39168 -5.32372,2.37661 -7.32026,3.65844"
         style="display:inline;fill:none;stroke:none;stroke-width:0.518871;stroke-linecap:round;stroke-linejoin:miter;stroke-miterlimit:4;stroke-dasharray:none;stroke-opacity:1" />
      <path
         sodipodi:nodetypes="csccc"
         inkscape:connector-curvature="0"
         id="path3892"
         d="m 70.650052,158.18013 c 0,0 -2.27199,0.34503 -6.18433,5.74594 -2.11426,2.91871 -3.90153,11.44473 -3.90153,11.44473 l 1.41581,8.74624 z"
         style="fill:#eeab48;fill-opacity:1;stroke:none;stroke-width:0.264583px;stroke-linecap:butt;stroke-linejoin:miter;stroke-opacity:1" />
      <path
         id="path1477-9-0-9-9-9-6-0-2"
         d="m 106.64249,190.55243 c 6.86892,-2.52077 19.27414,-6.32352 13.01845,-20.35153 -3.3578,-7.52966 -4.8219,-10.16164 -1.83616,-14.93682 1.68264,-2.69102 3.70797,-4.5796 9.11845,-2.74045 5.82711,1.98077 10.2786,5.71632 10.97639,13.16893 0.75725,8.08705 0.11159,16.01661 -5.80743,22.34302 -6.72966,7.19285 -16.75812,10.46886 -27.54609,10.82508 z"
         style="display:inline;fill:url(#linearGradient3319);fill-opacity:1;stroke:none;stroke-width:0.918688px;stroke-linecap:butt;stroke-linejoin:miter;stroke-opacity:1"
         inkscape:connector-curvature="0" />
      <path
         style="display:inline;fill:#7a4837;fill-opacity:1;stroke:none;stroke-width:0.918689px;stroke-linecap:butt;stroke-linejoin:miter;stroke-opacity:1"
         d="m 118.37955,167.30591 c 4.87559,-0.0105 11.15306,-3.10811 17.48311,-8.2331 2.33151,3.65629 2.44965,7.43053 2.30686,10.8502 -4.02107,4.22886 -10.38203,5.57776 -16.87402,5.84351 -0.63063,-4.01255 -1.88134,-5.75086 -2.91595,-8.46061 z"
         id="path2041-6-9-4-4-9-0-1-3"
         inkscape:connector-curvature="0" />
      <path
         style="display:inline;fill:#7a4837;fill-opacity:1;stroke:none;stroke-width:0.918689px;stroke-linecap:butt;stroke-linejoin:miter;stroke-opacity:1"
         d="m 120.71493,180.87557 c 5.69214,1.69727 11.46299,0.45089 16.41943,-1.82273 -0.88215,3.87444 -2.93277,7.20985 -6.26349,10.22454 -4.38649,1.30312 -9.69401,-1.24831 -14.51547,-3.17521 1.78125,-1.55279 3.35035,-2.85596 4.35953,-5.2266 z"
         id="path2043-8-5-9-7-4-1-7-9"
         inkscape:connector-curvature="0" />
      <path
         id="path1821-3-0-8-1-1-0-5"
         d="m 116.21767,159.83959 c 0,0 7.51427,10.4132 7.86726,16.51714 0.16756,2.89785 -0.91184,6.05526 -2.82699,8.23641 -3.60368,4.10393 -14.67973,7.27773 -14.67973,7.27773 l 0.0792,-1.31677 c 3.27328,-1.24369 6.09118,-1.85462 10.6711,-5.10449 2.98878,-2.6689 4.2449,-5.82349 3.99044,-9.41568 -0.19133,-2.70117 -1.83638,-6.03321 -2.9608,-8.74817 -0.67361,-1.47613 -1.27795,-2.97114 -1.66376,-4.28205 -0.38581,-1.31091 -0.50553,-2.40794 -0.47675,-3.16412 z"
         style="display:inline;opacity:0.294;fill:url(#linearGradient4423);fill-opacity:1;stroke:none;stroke-width:0.918689px;stroke-linecap:butt;stroke-linejoin:miter;stroke-opacity:1"
         inkscape:connector-curvature="0" />
      <g
         transform="matrix(-1.6557464,0,0,1.6557464,4.0626118,674.54856)"
         id="g2318-8-68-8-1">
        <path
           id="path1481-9-3-4-3-0-4-5-6"
           d="m -61.631523,-283.9177 c -2.6187,0.97593 -7.39935,1.86632 -8.68531,3.9338 -0.18789,0.30214 -0.30253,0.80695 0.17086,1.42983 0.047,0.44883 0.23146,0.77139 0.75606,0.92431 0.13289,0.46137 1.4721,0.59995 2.26981,0.33904 l 10.81456,-3.5371 z"
           style="display:inline;fill:url(#linearGradient3323);fill-opacity:1;stroke:none;stroke-width:0.643962px;stroke-linecap:butt;stroke-linejoin:miter;stroke-opacity:1"
           inkscape:connector-curvature="0" />
        <g
           transform="matrix(-2.4338762,0,0,2.4338762,-137.65963,-747.645)"
           style="display:inline;fill:#222327;fill-opacity:1;stroke:none"
           id="g2018-0-7-8-0-4-3-8-3-3">
          <path
             style="display:inline;fill:#222327;fill-opacity:1;stroke:none;stroke-width:0.105246px;stroke-linecap:butt;stroke-linejoin:miter;stroke-opacity:1"
             d="m -27.787532,192.68747 c -0.33579,-0.44722 -0.778534,-0.68133 -1.086354,-0.52559 0,0 0.369676,0.0375 0.51645,0.12298 0.179224,0.10442 0.569905,0.40261 0.569904,0.40261 z"
             id="path1066-0-0-3-9-2-5-3-4-3-0-63-3-5-47-0-2"
             inkscape:connector-curvature="0" />
          <path
             id="path1066-0-0-3-1-5-8-7-4-6-1-1-2-1-8-9-0-2"
             d="m -28.087353,193.06905 c -0.335786,-0.44722 -0.778534,-0.68133 -1.086355,-0.52559 0,0 0.369676,0.0375 0.516454,0.12298 0.17922,0.10442 0.569901,0.40261 0.569901,0.40261 z"
             style="display:inline;fill:#222327;fill-opacity:1;stroke:none;stroke-width:0.105246px;stroke-linecap:butt;stroke-linejoin:miter;stroke-opacity:1"
             inkscape:connector-curvature="0" />
        </g>
      </g>
      <path
         sodipodi:nodetypes="cssssscc"
         inkscape:connector-curvature="0"
         id="path2190-3-6-0"
         d="m 68.802862,156.07397 c 0,0 -9.96859,24.66385 -7.22864,36.75708 1.42833,6.30419 7.91182,15.2325 12.45868,16.00524 6.55662,1.11431 9.20544,-1.89123 13.61793,-1.59884 4.40156,0.29163 8.84161,3.74181 13.401358,1.84866 4.12685,-1.71344 8.97173,-9.83977 10.44373,-16.28767 2.76959,-12.13186 -10.71532,-38.22343 -10.71532,-38.22343 z"
         style="fill:#f0b761;fill-opacity:1;stroke:none;stroke-width:0.377459px;stroke-linecap:butt;stroke-linejoin:miter;stroke-opacity:1" />
      <g
         transform="matrix(1.6557464,0,0,1.6557464,169.51795,674.19855)"
         id="g2318-27-3-6">
        <path
           id="path1481-9-3-4-3-1-5-6"
           d="m -61.631523,-283.9177 c -2.6187,0.97593 -7.39935,1.86632 -8.68531,3.9338 -0.18789,0.30214 -0.30253,0.80695 0.17086,1.42983 0.047,0.44883 0.23146,0.77139 0.75606,0.92431 0.13289,0.46137 1.4721,0.59995 2.26981,0.33904 l 10.81456,-3.5371 z"
           style="display:inline;fill:url(#linearGradient3325);fill-opacity:1;stroke:none;stroke-width:0.643962px;stroke-linecap:butt;stroke-linejoin:miter;stroke-opacity:1"
           inkscape:connector-curvature="0" />
        <g
           transform="matrix(-2.4338762,0,0,2.4338762,-137.65963,-747.645)"
           style="display:inline;fill:#222327;fill-opacity:1;stroke:none"
           id="g2018-0-7-8-0-4-4-3-9">
          <path
             style="display:inline;fill:#222327;fill-opacity:1;stroke:none;stroke-width:0.105246px;stroke-linecap:butt;stroke-linejoin:miter;stroke-opacity:1"
             d="m -27.787532,192.68747 c -0.33579,-0.44722 -0.778534,-0.68133 -1.086354,-0.52559 0,0 0.369676,0.0375 0.51645,0.12298 0.179224,0.10442 0.569905,0.40261 0.569904,0.40261 z"
             id="path1066-0-0-3-9-2-5-3-4-3-0-63-3-8-1-5"
             inkscape:connector-curvature="0" />
          <path
             id="path1066-0-0-3-1-5-8-7-4-6-1-1-2-1-7-5-0"
             d="m -28.087353,193.06905 c -0.335786,-0.44722 -0.778534,-0.68133 -1.086355,-0.52559 0,0 0.369676,0.0375 0.516454,0.12298 0.17922,0.10442 0.569901,0.40261 0.569901,0.40261 z"
             style="display:inline;fill:#222327;fill-opacity:1;stroke:none;stroke-width:0.105246px;stroke-linecap:butt;stroke-linejoin:miter;stroke-opacity:1"
             inkscape:connector-curvature="0" />
        </g>
      </g>
      <path
         sodipodi:nodetypes="ccssscsc"
         inkscape:connector-curvature="0"
         id="path2232-0-4-5"
         d="m 87.789642,208.91221 c -2.92381,-0.0998 -11.52009,1.61122 -12.26324,0.12497 -6.21975,-0.77447 -14.62417,-29.51499 -3.27493,-37.74007 2.25889,-1.63706 8.92845,-5.58804 15.51702,-5.58813 6.58856,-9e-5 11.23841,3.65145 13.473488,5.32086 10.94182,8.17268 2.78094,37.13811 -1.938578,38.03507 -1.77127,1.26518 -8.95368,-0.0651 -11.51375,-0.15264 z"
         style="fill:url(#linearGradient3327);fill-opacity:1;stroke:none;stroke-width:0.377459px;stroke-linecap:butt;stroke-linejoin:miter;stroke-opacity:1" />
      <path
         sodipodi:nodetypes="csssscc"
         inkscape:connector-curvature="0"
         id="path1627-31-7-7-4"
         d="m 73.920082,110.36904 c 0,0 0.0204,-7.35118 -2.24335,-9.85942 -2.68522,-2.975283 -7.28986,-4.383043 -11.22432,-3.619693 -2.80899,0.54496 -5.40408,2.8415 -6.66444,5.410333 -1.3747,2.8018 -1.77034,6.6522 -0.21883,9.36007 1.98382,3.46232 10.46633,5.81078 10.46633,5.81078 z"
         style="fill:#f0b761;fill-opacity:1;stroke:none;stroke-width:0.377459px;stroke-linecap:butt;stroke-linejoin:miter;stroke-opacity:1" />
      <path
         sodipodi:nodetypes="csssscc"
         inkscape:connector-curvature="0"
         id="path1627-4-6-6-1-0"
         d="m 69.259332,110.37236 c 0,0 1.27757,-5.92675 -0.18194,-7.59621 -1.73142,-1.98028 -4.70229,-2.915643 -7.24168,-2.40533 -1.81298,0.36431 -3.4888,1.89511 -4.30339,3.6066 -0.88849,1.86671 -1.14568,4.4313 -0.14574,6.23406 1.27854,2.305 8.18906,2.8384 8.18906,2.8384 z"
         style="fill:#7a4837;fill-opacity:1;stroke:none;stroke-width:0.24746px;stroke-linecap:butt;stroke-linejoin:miter;stroke-opacity:1" />
      <g
         transform="matrix(-1.4262277,-0.03333878,-0.03333878,1.4262277,-184.9713,450.39174)"
         id="g1698-2-5-1-1">
        <path
           style="fill:#f0b761;fill-opacity:1;stroke:none;stroke-width:0.264583px;stroke-linecap:butt;stroke-linejoin:miter;stroke-opacity:1"
           d="m -196.31406,-242.60955 c 0,0 -0.10617,-5.1518 -1.73358,-6.87241 -1.93045,-2.041 -5.18029,-2.95208 -7.92493,-2.35271 -1.95952,0.42792 -3.74046,2.07976 -4.5816,3.90056 -0.91744,1.98594 -1.13162,4.69064 -1e-5,6.56283 1.4469,2.39379 7.42963,3.90055 7.42963,3.90055 z"
           id="path1627-9-1-5-0-0"
           inkscape:connector-curvature="0"
           sodipodi:nodetypes="csssscc" />
        <path
           style="fill:#7a4837;fill-opacity:1;stroke:none;stroke-width:0.173459px;stroke-linecap:butt;stroke-linejoin:miter;stroke-opacity:1"
           d="m -199.58011,-242.53088 c 0,0 0.79819,-4.17421 -0.25193,-5.32019 -1.24577,-1.35935 -3.34296,-1.96617 -5.11413,-1.56696 -1.26453,0.285 -2.4138,1.38518 -2.9566,2.59788 -0.59205,1.32269 -0.73026,3.12409 -1e-5,4.37103 0.93371,1.59432 5.78512,1.85491 5.78512,1.85491 z"
           id="path1627-4-4-4-9-3-1"
           inkscape:connector-curvature="0"
           sodipodi:nodetypes="csssscc" />
      </g>
      <path
         sodipodi:nodetypes="csssssssc"
         inkscape:connector-curvature="0"
         id="path1609-3-5-4-5"
         d="m 70.042162,108.0109 c 10.19521,-7.02631 26.70463,-6.73383 37.150028,0.93089 8.25046,6.05411 12.14613,16.29211 15.54822,26.13288 1.77052,5.12129 1.17978,10.16424 -3.26187,14.38734 -8.63162,8.20688 -20.066788,10.82833 -31.976918,10.74765 -12.03441,-0.0815 -24.74636,-3.69917 -33.1936,-12.27106 -3.46233,-3.51343 -3.93064,-9.72583 -1.98812,-14.52518 4.01884,-9.92942 8.03294,-20.91491 17.72226,-25.40249 z"
         style="fill:url(#linearGradient3329);fill-opacity:1;stroke:none;stroke-width:0.377459px;stroke-linecap:butt;stroke-linejoin:miter;stroke-opacity:1" />
      <path
         sodipodi:nodetypes="ssscss"
         inkscape:connector-curvature="0"
         style="display:inline;fill:#7a4837;fill-opacity:1;stroke:none;stroke-width:0.918688px;stroke-linecap:butt;stroke-linejoin:miter;stroke-opacity:1"
         d="m 74.801552,139.56506 c -13.45502,3.34837 -18.7119,-5.50213 -13.99623,-15.93219 3.61026,-7.98514 12.54802,-12.01731 27.9652,-11.80696 15.257878,0.20812 26.270108,6.07284 27.669338,17.52919 1.51386,12.39553 -9.77315,14.54708 -19.367018,10.3636 -8.9777,-3.91483 -9.1316,-3.42358 -22.27129,-0.15364 z"
         id="path1473-7-6-4-2-6-0-3" />
      <path
         sodipodi:nodetypes="cccc"
         inkscape:connector-curvature="0"
         id="path1011-5-0-7-4-3-1-6-1"
         d="m 84.793822,134.9066 c 1.16291,-2.02935 5.79432,-1.91366 6.74842,0.22182 0.84358,1.88817 -1.54374,4.87906 -3.60514,4.7132 -1.8873,-0.15182 -4.08471,-3.29229 -3.14326,-4.93502 z"
         style="display:inline;fill:#222327;fill-opacity:1;stroke:none;stroke-width:0.53095px;stroke-linecap:butt;stroke-linejoin:miter;stroke-opacity:1" />
      <path
         sodipodi:nodetypes="ccccccc"
         inkscape:connector-curvature="0"
         id="path1013-0-7-3-9-8-7-3-0"
         d="m 87.928572,138.46639 c -2.77264,10.58114 -9.74915,6.96926 -13.99782,4.6904 0,0 3.9208,3.96508 6.85832,3.86613 2.16186,-0.0729 7.11243,-3.86036 7.11243,-3.86036 0,0 4.69483,4.22765 7.38564,4.2183 2.46644,-0.009 6.116878,-3.87521 6.116878,-3.87521 -4.406618,3.12022 -11.248638,4.95198 -13.475448,-5.03926 z"
         style="display:inline;fill:#222327;fill-opacity:1;stroke:none;stroke-width:0.543929px;stroke-linecap:butt;stroke-linejoin:miter;stroke-opacity:1" />
      <ellipse
         transform="rotate(1.9144782)"
         style="display:inline;fill:#ffcc00;fill-opacity:1;stroke:none;stroke-width:2.13718;stroke-linecap:round;stroke-miterlimit:4;stroke-dasharray:none;stroke-opacity:1"
         id="path992-7-8-6-4-3-8-9-35-1-1"
         cx="75.60759"
         cy="126.96875"
         rx="7.3076601"
         ry="7.1735744" />
      <circle
         transform="rotate(1.9144782)"
         style="display:inline;fill:#222327;fill-opacity:1;stroke:none;stroke-width:2.21015;stroke-linecap:round;stroke-miterlimit:4;stroke-dasharray:none;stroke-opacity:1"
         id="path994-1-0-0-3-6-8-1-3-6-6"
         cx="75.492599"
         cy="127.00525"
         r="5.0168629" />
      <ellipse
         transform="rotate(1.9144782)"
         style="display:inline;fill:#ffcc00;fill-opacity:1;stroke:none;stroke-width:2.13718;stroke-linecap:round;stroke-miterlimit:4;stroke-dasharray:none;stroke-opacity:1"
         id="path992-7-3-2-8-3-0-0-8-1-0"
         cx="109.97318"
         cy="126.5365"
         rx="7.3076601"
         ry="7.1735744" />
      <circle
         transform="rotate(1.9144782)"
         style="display:inline;fill:#222327;fill-opacity:1;stroke:none;stroke-width:2.21015;stroke-linecap:round;stroke-miterlimit:4;stroke-dasharray:none;stroke-opacity:1"
         id="path994-1-07-1-6-5-4-1-6-4-8"
         cx="110.16927"
         cy="126.52581"
         r="5.0168629" />
      <ellipse
         transform="rotate(-2.1355806)"
         ry="1.0599229"
         rx="2.2965"
         cy="136.28296"
         cx="104.40747"
         id="path3546-14-5-4"
         style="opacity:1;fill:#f2f1f0;fill-opacity:1;fill-rule:nonzero;stroke:none;stroke-width:0.754918;stroke-linecap:round;stroke-linejoin:round;stroke-miterlimit:4;stroke-dasharray:none;stroke-dashoffset:0;stroke-opacity:1;paint-order:stroke markers fill" />
      <ellipse
         transform="rotate(-2.1355806)"
         ry="1.0599227"
         rx="2.2965"
         cy="134.62036"
         cx="69.901764"
         id="path3546-1-1-0-6"
         style="opacity:1;fill:#f2f1f0;fill-opacity:1;fill-rule:nonzero;stroke:none;stroke-width:0.754918;stroke-linecap:round;stroke-linejoin:round;stroke-miterlimit:4;stroke-dasharray:none;stroke-dashoffset:0;stroke-opacity:1;paint-order:stroke markers fill" />
      <path
         sodipodi:nodetypes="cscc"
         inkscape:connector-curvature="0"
         id="path1831-6-4-8"
         d="m 84.730182,134.64776 c 0,0 -0.7545,2.14944 -0.32984,2.85675 0.59315,0.98823 3.21975,2.41197 3.21975,2.41197 z"
         style="fill:#2a2725;fill-opacity:0.183871;stroke:none;stroke-width:0.377459px;stroke-linecap:butt;stroke-linejoin:miter;stroke-opacity:1" />
      <path
         sodipodi:nodetypes="cssccccc"
         inkscape:connector-curvature="0"
         id="path1833-0-5-0"
         d="m 95.762132,147.54248 c 0,0 -2.81746,-0.29941 -4.10259,-0.84533 -1.16576,-0.49511 -2.11053,-1.40201 -3.13581,-2.14558 -0.46001,-0.33363 -1.35209,-1.0383 -1.35209,-1.0383 l 1.01131,-0.78711 2.67453,2.26159 3.86098,1.56573 z"
         style="fill:#262321;fill-opacity:0.193548;stroke:none;stroke-width:0.377459px;stroke-linecap:butt;stroke-linejoin:miter;stroke-opacity:1" />
      <path
         sodipodi:nodetypes="ccsccccccccc"
         inkscape:connector-curvature="0"
         id="path3700-5"
         d="m 73.742182,105.93577 1.89962,0.51109 c 0,0 -0.68961,1.51846 -0.58764,2.14894 0.24646,1.52412 2.26108,4.04238 2.26108,4.04238 l 1.19857,-0.18965 -0.56181,-5.74561 -0.2336,-0.59525 0.24963,-0.6475 -0.27254,-0.69445 c -0.90955,0.22443 -1.30614,0.6003 -1.60076,1.00626 l -1.02104,-0.44043 z"
         style="fill:url(#linearGradient3335);fill-opacity:1;stroke:none;stroke-width:0.377459px;stroke-linecap:butt;stroke-linejoin:miter;stroke-opacity:1" />
      <g
         transform="matrix(1.420243,-0.13471076,0.13471076,1.420243,1289.8878,384.88093)"
         id="g3392-6-0">
        <path
           sodipodi:nodetypes="ccccccc"
           style="display:inline;fill:#6e4132;fill-opacity:1;stroke:none;stroke-width:0.643963px;stroke-linecap:butt;stroke-linejoin:miter;stroke-opacity:1"
           d="m -828.14606,-270.23756 c 0,0 2.4401,2.69023 3.65183,3.48253 1.8045,1.17985 3.74126,1.49153 5.89519,1.5856 2.22315,0.0971 4.03235,-0.39224 6.17976,-0.97577 0.95206,-0.25872 2.66806,-1.11495 2.66806,-1.11495 l -1.24509,-0.63325 c -5.73066,-0.74916 -12.08507,-2.73668 -17.14975,-2.34416 z"
           id="path1786-8-8-8-7-4"
           inkscape:connector-curvature="0" />
        <path
           style="display:inline;fill:#eeab48;fill-opacity:1;stroke:none;stroke-width:0.643963px;stroke-linecap:butt;stroke-linejoin:miter;stroke-opacity:1"
           d="m -809.77227,-267.24453 c 0.51528,-0.32731 1.11537,-0.61825 1.45692,-1.02001 -0.75139,0.0618 -0.81267,0.0282 -1.70289,-0.007 l -0.87624,0.47015 z"
           id="path1819-7-6-4-6-0"
           inkscape:connector-curvature="0" />
        <path
           id="path1569-4-2-3-7"
           d="m -825.77328,-277.50723 c 4.79045,-3.04821 8.44784,-1.49771 11.4086,2.88016 1.46079,2.40776 2.72088,5.21998 4.88484,6.21069 -3.66347,2.74539 -7.85916,4.19252 -12.01743,2.6832 -5.88115,-2.13461 -8.9473,-6.12027 -4.27601,-11.77405 z"
           style="display:inline;fill:#50c058;fill-opacity:1;stroke:none;stroke-width:0.445616px;stroke-linecap:butt;stroke-linejoin:miter;stroke-opacity:1"
           inkscape:connector-curvature="0" />
        <path
           id="path1573-2-2-1-0"
           d="m -828.73134,-277.40369 c 0,0 2.61618,2.17375 4.24875,2.56358 1.27265,0.30409 3.80938,-0.29791 3.80938,-0.29791 0,0 -2.77873,0.29504 -2.8123,1.22551 -0.0423,1.17286 2.16781,1.68334 3.40556,2.32041 1.77266,0.91238 5.64861,2.09447 5.64861,2.09447 0,0 -2.27487,0.0745 -3.39504,-0.16453 -0.30402,-0.065 1.5064,2.86031 1.21935,2.72336 -0.28698,-0.13727 -2.67123,-3.33716 -2.9529,-3.48857 -0.5634,-0.3027 -1.12793,-0.57559 -1.74081,-0.58581 -0.69,-0.0122 -2.06787,1.32381 -2.06787,1.32381 0.11926,-1.91493 -0.4415,-2.68303 -1.51387,-3.52046 -1.51991,-1.1869 -4.29131,-3.39046 -4.29131,-3.39046 z"
           style="display:inline;fill:#34a83c;fill-opacity:1;stroke:none;stroke-width:0.486522px;stroke-linecap:butt;stroke-linejoin:miter;stroke-opacity:1"
           inkscape:connector-curvature="0" />
      </g>
      <g
         transform="translate(-2.0816508,-0.42709119)"
         id="g1225">
        <text
           xml:space="preserve"
           style="font-style:normal;font-variant:normal;font-weight:bold;font-stretch:normal;font-size:75.2151px;line-height:1.25;font-family:'Bauhaus 93';-inkscape-font-specification:'Bauhaus 93 Bold';letter-spacing:0px;word-spacing:0px;display:inline;fill:#0c260d;fill-opacity:0.0451613;stroke:none;stroke-width:1.88038"
           x="62.592369"
           y="202.95541"
           id="text2144-3-4-30-2"
           transform="matrix(0.9952443,-0.01943482,-0.00438722,1.0048641,0,0)"><tspan
             id="tspan2142-9-3-7-19"
             x="62.592369"
             y="202.95541"
             style="font-style:normal;font-variant:normal;font-weight:bold;font-stretch:normal;font-family:'Berlin Sans FB';-inkscape-font-specification:'Berlin Sans FB Bold';fill:#0c260d;fill-opacity:0.0451613;stroke:none;stroke-width:1.88038">O</tspan></text>
        <g
           aria-label="O"
           transform="matrix(0.9952443,-0.01943482,-0.00438722,1.0048641,0,0)"
           id="text2144-3-4-30"
           style="font-weight:bold;font-size:75.2151px;line-height:1.25;font-family:'Bauhaus 93';-inkscape-font-specification:'Bauhaus 93 Bold';letter-spacing:0px;word-spacing:0px;display:inline;fill:#34a83c;stroke-width:1.88038">
          <path
             d="m 121.22058,174.48362 q 0,11.31165 -7.96957,19.31794 -7.93284,7.96957 -19.244488,7.96957 -11.348372,0 -19.317941,-7.96957 -7.932843,-8.00629 -7.932843,-19.31794 0,-11.34837 7.932843,-19.35467 7.969569,-8.04302 19.317941,-8.04302 11.311648,0 19.244488,8.04302 7.96957,8.0063 7.96957,19.35467 z m -18.80377,0 q 0,-3.56243 -2.460655,-6.09653 -2.423925,-2.57083 -5.949633,-2.57083 -3.59916,0 -6.023084,2.5341 -2.423924,2.5341 -2.423924,6.13326 0,3.48898 2.46065,6.02309 2.497377,2.5341 5.986358,2.5341 3.525708,0 5.949633,-2.49738 2.460655,-2.5341 2.460655,-6.05981 z"
             style="font-family:'Berlin Sans FB';-inkscape-font-specification:'Berlin Sans FB Bold'"
             id="path8945" />
        </g>
        <g
           transform="matrix(0.96511126,1.3087569,-0.64490682,1.5042714,267.17818,-68.467511)"
           style="display:inline;fill:#0c260d;fill-opacity:0.0451613;stroke:none"
           id="g2361-5-9-45-7-3-9-2">
          <path
             inkscape:connector-curvature="0"
             id="path1166-9-8-8-3-1-4-6-6-6-7-3-2"
             d="m -207.66867,70.590574 c 0.0502,-0.89436 1.18803,-1.63523 2.11132,-1.70901 0.89879,-0.0718 2.08309,0.65085 2.2227,1.54164 0.10719,0.68399 -0.59312,1.47316 -1.26272,1.64911 -0.51926,0.13645 -1.65422,0.23469 -1.97363,-0.2007 -0.31004,0.0329 -0.70225,-0.38505 -0.77431,-0.75818 -0.23075,-0.0223 -0.33841,-0.25483 -0.32336,-0.52286 z"
             style="display:inline;fill:#0c260d;fill-opacity:0.0451613;stroke:none;stroke-width:0.201561px;stroke-linecap:butt;stroke-linejoin:miter;stroke-opacity:1"
             transform="matrix(2.0601859,-1.4406808,1.4406808,2.0601859,286.97327,-256.92282)" />
          <path
             inkscape:connector-curvature="0"
             style="display:inline;fill:#0c260d;fill-opacity:0.0451613;stroke:none;stroke-width:0.264583px;stroke-linecap:butt;stroke-linejoin:miter;stroke-opacity:1"
             d="m -36.799681,185.25886 c -0.96086,1.02636 -1.34744,2.2246 -0.82763,2.91881 0,0 -0.0684,-0.9316 0.0793,-1.33227 0.18038,-0.48926 0.74832,-1.58654 0.74832,-1.58654 z"
             id="path1066-0-0-3-9-2-5-4-9-2-7-2-0-6-5-8-6" />
          <path
             inkscape:connector-curvature="0"
             id="path1066-0-0-3-1-5-8-7-7-9-3-1-6-0-9-6-6-6"
             d="m -34.145051,185.5567 c -0.96086,1.02635 -1.34744,2.2246 -0.82762,2.91881 0,0 -0.0684,-0.9316 0.0793,-1.33228 0.18038,-0.48925 0.74832,-1.58653 0.74832,-1.58653 z"
             style="display:inline;fill:#0c260d;fill-opacity:0.0451613;stroke:none;stroke-width:0.264583px;stroke-linecap:butt;stroke-linejoin:miter;stroke-opacity:1" />
        </g>
        <g
           transform="matrix(0.96511126,1.3087569,-0.64490682,1.5042714,268.13179,-69.611391)"
           style="display:inline;stroke:none"
           id="g2361-5-9-45-7-3-9">
          <path
             inkscape:connector-curvature="0"
             id="path1166-9-8-8-3-1-4-6-6-6-7-3"
             d="m -207.66867,70.590574 c 0.0502,-0.89436 1.18803,-1.63523 2.11132,-1.70901 0.89879,-0.0718 2.08309,0.65085 2.2227,1.54164 0.10719,0.68399 -0.59312,1.47316 -1.26272,1.64911 -0.51926,0.13645 -1.65422,0.23469 -1.97363,-0.2007 -0.31004,0.0329 -0.70225,-0.38505 -0.77431,-0.75818 -0.23075,-0.0223 -0.33841,-0.25483 -0.32336,-0.52286 z"
             style="display:inline;fill:#f0b761;fill-opacity:1;stroke:none;stroke-width:0.201561px;stroke-linecap:butt;stroke-linejoin:miter;stroke-opacity:1"
             transform="matrix(2.0601859,-1.4406808,1.4406808,2.0601859,286.97327,-256.92282)" />
          <path
             inkscape:connector-curvature="0"
             style="display:inline;fill:#000000;fill-opacity:1;stroke:none;stroke-width:0.264583px;stroke-linecap:butt;stroke-linejoin:miter;stroke-opacity:1"
             d="m -36.799681,185.25886 c -0.96086,1.02636 -1.34744,2.2246 -0.82763,2.91881 0,0 -0.0684,-0.9316 0.0793,-1.33227 0.18038,-0.48926 0.74832,-1.58654 0.74832,-1.58654 z"
             id="path1066-0-0-3-9-2-5-4-9-2-7-2-0-6-5-8" />
          <path
             inkscape:connector-curvature="0"
             id="path1066-0-0-3-1-5-8-7-7-9-3-1-6-0-9-6-6"
             d="m -34.145051,185.5567 c -0.96086,1.02635 -1.34744,2.2246 -0.82762,2.91881 0,0 -0.0684,-0.9316 0.0793,-1.33228 0.18038,-0.48925 0.74832,-1.58653 0.74832,-1.58653 z"
             style="display:inline;fill:#000000;fill-opacity:1;stroke:none;stroke-width:0.264583px;stroke-linecap:butt;stroke-linejoin:miter;stroke-opacity:1" />
        </g>
        <path
           style="fill:#103412;fill-opacity:0.0806452;stroke:none;stroke-width:0.360757px;stroke-linecap:butt;stroke-linejoin:miter;stroke-opacity:1"
           d="m 74.354352,174.49947 c 0,0 0.2455,3.20798 -0.0667,4.74415 -0.20111,0.98959 -0.70959,1.85269 -1.13373,2.73392 -0.28161,0.58508 -0.60448,1.14078 -0.93366,1.68858 -0.46443,0.77289 -0.84708,1.65824 -1.46718,2.25146 -0.57652,0.55154 -2.04786,1.19681 -2.04786,1.19681 -1.1322,-2.39539 -2.04957,-5.26488 -3.08728,-7.87077 z"
           id="path4384"
           inkscape:connector-curvature="0"
           sodipodi:nodetypes="cssssccc" />
        <g
           id="g3224-5-2"
           transform="matrix(1.1416893,-0.85544287,0.85544287,1.1416893,1148.9227,-314.26907)">
          <path
             style="display:inline;fill:#f0b761;fill-opacity:1;stroke:none;stroke-width:0.617247px;stroke-linecap:butt;stroke-linejoin:miter;stroke-opacity:1"
             d="m -806.69627,-179.3641 c -0.25249,-2.73149 -3.81653,-4.87302 -6.65027,-4.99675 -2.75853,-0.12038 -6.303,2.22209 -6.63179,4.96364 -0.25242,2.10509 1.978,4.4428 4.04665,4.90725 1.60419,0.36018 5.08841,0.53536 6.01778,-0.83238 0.95247,0.0664 2.10656,-1.25602 2.28584,-2.40588 0.70371,-0.0938 1.00748,-0.81728 0.93179,-1.63588 z"
             id="path1166-9-8-8-3-10-1-5-9"
             inkscape:connector-curvature="0" />
          <g
             transform="matrix(-0.97241674,0.73366455,0.73366455,0.97241674,-982.135,-333.01331)"
             id="g1955-59-9-8-2-2-8"
             style="display:inline;stroke:none">
            <path
               id="path1066-0-0-3-9-2-5-4-9-0-9-1-6"
               d="m -36.799681,185.25886 c -0.96086,1.02636 -1.34744,2.2246 -0.82763,2.91881 0,0 -0.0684,-0.9316 0.0793,-1.33227 0.18038,-0.48926 0.74832,-1.58654 0.74832,-1.58654 z"
               style="display:inline;fill:#000000;fill-opacity:1;stroke:none;stroke-width:0.264583px;stroke-linecap:butt;stroke-linejoin:miter;stroke-opacity:1"
               inkscape:connector-curvature="0" />
            <path
               style="display:inline;fill:#000000;fill-opacity:1;stroke:none;stroke-width:0.264583px;stroke-linecap:butt;stroke-linejoin:miter;stroke-opacity:1"
               d="m -34.145051,185.5567 c -0.96086,1.02635 -1.34744,2.2246 -0.82762,2.91881 0,0 -0.0684,-0.9316 0.0793,-1.33228 0.18038,-0.48925 0.74832,-1.58653 0.74832,-1.58653 z"
               id="path1066-0-0-3-1-5-8-7-7-9-8-5-1-8"
               inkscape:connector-curvature="0" />
          </g>
        </g>
      </g>
    </g>
  </g>
</svg>
