<?xml version="1.0" encoding="UTF-8" standalone="no"?>
<svg
   inkscape:version="1.1 (c68e22c387, 2021-05-23)"
   inkscape:export-ydpi="688.8136"
   inkscape:export-xdpi="688.8136"
   sodipodi:docname="JotoTitle.svg"
   width="295mm"
   height="130mm"
   viewBox="0 0 295 130"
   version="1.1"
   id="svg8"
   xmlns:inkscape="http://www.inkscape.org/namespaces/inkscape"
   xmlns:sodipodi="http://sodipodi.sourceforge.net/DTD/sodipodi-0.dtd"
   xmlns:xlink="http://www.w3.org/1999/xlink"
   xmlns="http://www.w3.org/2000/svg"
   xmlns:svg="http://www.w3.org/2000/svg"
   xmlns:rdf="http://www.w3.org/1999/02/22-rdf-syntax-ns#"
   xmlns:cc="http://creativecommons.org/ns#"
   xmlns:dc="http://purl.org/dc/elements/1.1/">
  <sodipodi:namedview
     id="namedview1232"
     pagecolor="#ffffff"
     bordercolor="#666666"
     borderopacity="1.0"
     inkscape:pageshadow="2"
     inkscape:pageopacity="0.0"
     inkscape:pagecheckerboard="0"
     inkscape:document-units="mm"
     showgrid="false"
     inkscape:zoom="0.12657398"
     inkscape:cx="560.9368"
     inkscape:cy="1062.6197"
     inkscape:window-width="1680"
     inkscape:window-height="987"
     inkscape:window-x="2552"
     inkscape:window-y="184"
     inkscape:window-maximized="1"
     inkscape:current-layer="svg8" />
  <defs
     id="defs2">
    <linearGradient
       id="linearGradient1352">
      <stop
         id="stop1348"
         offset="0"
         style="stop-color:#333333;stop-opacity:1;" />
      <stop
         id="stop1350"
         offset="1"
         style="stop-color:#333333;stop-opacity:0;" />
    </linearGradient>
    <linearGradient
       id="linearGradient3569">
      <stop
         style="stop-color:#2d9034;stop-opacity:1"
         offset="0"
         id="stop3565" />
      <stop
         style="stop-color:#50c058;stop-opacity:1"
         offset="1"
         id="stop3567" />
    </linearGradient>
    <linearGradient
       id="linearGradient1909">
      <stop
         id="stop1905"
         offset="0"
         style="stop-color:#eeac49;stop-opacity:1" />
      <stop
         id="stop1907"
         offset="1"
         style="stop-color:#f0b761;stop-opacity:1" />
    </linearGradient>
    <linearGradient
       id="linearGradient1903">
      <stop
         style="stop-color:#140c02;stop-opacity:0.14460784"
         offset="0"
         id="stop1899" />
      <stop
         style="stop-color:#140c02;stop-opacity:0;"
         offset="1"
         id="stop1901" />
    </linearGradient>
    <linearGradient
       id="linearGradient1887">
      <stop
         style="stop-color:#140c02;stop-opacity:0.20098039"
         offset="0"
         id="stop1883" />
      <stop
         style="stop-color:#140c02;stop-opacity:0;"
         offset="1"
         id="stop1885" />
    </linearGradient>
    <linearGradient
       id="linearGradient1863">
      <stop
         id="stop1859"
         offset="0"
         style="stop-color:#d1cdc8;stop-opacity:1" />
      <stop
         id="stop1861"
         offset="1"
         style="stop-color:#f2f1f0;stop-opacity:1" />
    </linearGradient>
    <linearGradient
       id="linearGradient1853">
      <stop
         id="stop1849"
         offset="0"
         style="stop-color:#2e9635;stop-opacity:1;" />
      <stop
         id="stop1851"
         offset="1"
         style="stop-color:#2e9635;stop-opacity:0;" />
    </linearGradient>
    <linearGradient
       id="linearGradient1845">
      <stop
         id="stop1841"
         offset="0"
         style="stop-color:#2e9635;stop-opacity:1" />
      <stop
         id="stop1843"
         offset="1"
         style="stop-color:#34a83c;stop-opacity:1" />
    </linearGradient>
    <linearGradient
       id="linearGradient1837">
      <stop
         id="stop1833"
         offset="0"
         style="stop-color:#140c02;stop-opacity:0.41911765" />
      <stop
         id="stop1835"
         offset="1"
         style="stop-color:#140c02;stop-opacity:0;" />
    </linearGradient>
    <linearGradient
       id="linearGradient1827">
      <stop
         id="stop1823"
         offset="0"
         style="stop-color:#eeab48;stop-opacity:1" />
      <stop
         id="stop1825"
         offset="1"
         style="stop-color:#140c02;stop-opacity:0;" />
    </linearGradient>
    <linearGradient
       id="linearGradient1815">
      <stop
         id="stop1811"
         offset="0"
         style="stop-color:#7a4837;stop-opacity:1;" />
      <stop
         id="stop1813"
         offset="1"
         style="stop-color:#6e4132;stop-opacity:1" />
    </linearGradient>
    <linearGradient
       id="linearGradient1807">
      <stop
         id="stop1803"
         offset="0"
         style="stop-color:#f0b761;stop-opacity:1;" />
      <stop
         id="stop1805"
         offset="1"
         style="stop-color:#eeab48;stop-opacity:1" />
    </linearGradient>
    <linearGradient
       id="linearGradient1299">
      <stop
         id="stop1295"
         offset="0"
         style="stop-color:#2a8931;stop-opacity:1" />
      <stop
         id="stop1297"
         offset="1"
         style="stop-color:#34a83c;stop-opacity:1" />
    </linearGradient>
    <linearGradient
       id="linearGradient1371">
      <stop
         id="stop1367"
         offset="0"
         style="stop-color:#f0b761;stop-opacity:1;" />
      <stop
         id="stop1369"
         offset="1"
         style="stop-color:#eead4a;stop-opacity:1" />
    </linearGradient>
    <linearGradient
       id="linearGradient1365">
      <stop
         style="stop-color:#f2f1f0;stop-opacity:1"
         offset="0"
         id="stop1361" />
      <stop
         style="stop-color:#cfcbc7;stop-opacity:1"
         offset="1"
         id="stop1363" />
    </linearGradient>
    <linearGradient
       id="linearGradient1259">
      <stop
         id="stop1255"
         offset="0"
         style="stop-color:#f0b761;stop-opacity:1;" />
      <stop
         id="stop1257"
         offset="1"
         style="stop-color:#eeac49;stop-opacity:1" />
    </linearGradient>
    <linearGradient
       id="linearGradient1220">
      <stop
         id="stop1216"
         offset="0"
         style="stop-color:#eda73d;stop-opacity:1" />
      <stop
         id="stop1218"
         offset="1"
         style="stop-color:#f0b761;stop-opacity:1" />
    </linearGradient>
    <linearGradient
       id="linearGradient1045">
      <stop
         id="stop1041"
         offset="0"
         style="stop-color:#56d926;stop-opacity:1;" />
      <stop
         id="stop1043"
         offset="1"
         style="stop-color:#45af1f;stop-opacity:1" />
    </linearGradient>
    <linearGradient
       id="linearGradient1037">
      <stop
         id="stop1033"
         offset="0"
         style="stop-color:#ffffff;stop-opacity:1;" />
      <stop
         id="stop1035"
         offset="1"
         style="stop-color:#e6e6e6;stop-opacity:1" />
    </linearGradient>
    <linearGradient
       id="linearGradient1031">
      <stop
         style="stop-color:#ffffff;stop-opacity:1"
         offset="0"
         id="stop1027" />
      <stop
         style="stop-color:#b3b3b3;stop-opacity:1"
         offset="1"
         id="stop1029" />
    </linearGradient>
    <linearGradient
       id="linearGradient1015">
      <stop
         id="stop1011"
         offset="0"
         style="stop-color:#ffffff;stop-opacity:1" />
      <stop
         id="stop1013"
         offset="1"
         style="stop-color:#ececec;stop-opacity:1" />
    </linearGradient>
    <linearGradient
       id="linearGradient1007">
      <stop
         id="stop1003"
         offset="0"
         style="stop-color:#ececec;stop-opacity:1;" />
      <stop
         id="stop1005"
         offset="1"
         style="stop-color:#ffffff;stop-opacity:0.96774191" />
    </linearGradient>
    <linearGradient
       gradientTransform="matrix(0.15563126,0,0,0.15563126,129.83317,136.24567)"
       gradientUnits="userSpaceOnUse"
       y2="250.50893"
       x2="183.31845"
       y1="235.76787"
       x1="152.3244"
       id="linearGradient1009"
       xlink:href="#linearGradient1007" />
    <linearGradient
       gradientTransform="matrix(0.15563126,0,0,0.15563126,129.83317,136.24567)"
       gradientUnits="userSpaceOnUse"
       y2="231.61012"
       x2="225.4628"
       y1="247.86308"
       x1="218.84821"
       id="linearGradient1017"
       xlink:href="#linearGradient1015" />
    <linearGradient
       gradientTransform="matrix(0.15563126,0,0,0.15563126,129.83317,136.24567)"
       gradientUnits="userSpaceOnUse"
       y2="223.57812"
       x2="230.65996"
       y1="220.03459"
       x1="231.84114"
       id="linearGradient1025"
       xlink:href="#linearGradient1031" />
    <radialGradient
       gradientUnits="userSpaceOnUse"
       gradientTransform="matrix(0.29987125,-0.26026838,0.2417299,0.27851185,53.176686,164.10604)"
       r="27.224691"
       fy="196.13097"
       fx="202.62668"
       cy="196.13097"
       cx="202.62668"
       id="radialGradient1039"
       xlink:href="#linearGradient1037" />
    <radialGradient
       gradientUnits="userSpaceOnUse"
       gradientTransform="matrix(-0.31833414,0.30152604,-0.30174335,-0.31856359,290.50624,175.90017)"
       r="22.624481"
       fy="212.96938"
       fx="203.41356"
       cy="212.96938"
       cx="203.41356"
       id="radialGradient1047"
       xlink:href="#linearGradient1045" />
    <filter
       height="1.2723947"
       y="-0.13619736"
       width="1.2700157"
       x="-0.13500785"
       id="filter1931"
       style="color-interpolation-filters:sRGB">
      <feGaussianBlur
         id="feGaussianBlur1933"
         stdDeviation="1.721483" />
    </filter>
    <linearGradient
       gradientTransform="matrix(5.0119436,0,0,5.0119436,253.47019,-678.37164)"
       gradientUnits="userSpaceOnUse"
       y2="180.28674"
       x2="-39.422256"
       y1="172.31485"
       x1="-38.462227"
       id="linearGradient1501"
       xlink:href="#linearGradient3569" />
    <linearGradient
       gradientTransform="matrix(0.20242679,0,0,0.15746659,-154.21069,108.83029)"
       y2="17.748711"
       x2="-263.57181"
       y1="38.116425"
       x1="-205.01219"
       gradientUnits="userSpaceOnUse"
       id="linearGradient1325-0"
       xlink:href="#linearGradient1299" />
    <linearGradient
       gradientTransform="matrix(0.20242679,0,0,0.15746659,-154.21069,108.83029)"
       gradientUnits="userSpaceOnUse"
       y2="25.539532"
       x2="-326.83722"
       y1="47.392391"
       x1="-366.51672"
       id="linearGradient1301-1"
       xlink:href="#linearGradient1299" />
    <linearGradient
       gradientTransform="matrix(1,0,0,0.94248133,-175.32178,-59.146621)"
       gradientUnits="userSpaceOnUse"
       y2="192.44487"
       x2="-41.338058"
       y1="189.43806"
       x1="-40.612923"
       id="linearGradient1359-0"
       xlink:href="#linearGradient1365" />
    <linearGradient
       gradientUnits="userSpaceOnUse"
       y2="179.70209"
       x2="-39.188393"
       y1="176.46144"
       x1="-38.787491"
       id="linearGradient1222-19"
       xlink:href="#linearGradient1220"
       gradientTransform="translate(-175.32178,-70.189361)" />
    <linearGradient
       gradientUnits="userSpaceOnUse"
       y2="190.78191"
       x2="-33.290253"
       y1="192.55257"
       x1="-32.205975"
       id="linearGradient1432-5"
       xlink:href="#linearGradient1371" />
    <linearGradient
       gradientUnits="userSpaceOnUse"
       y2="190.22583"
       x2="-45.235367"
       y1="191.06104"
       x1="-46.772167"
       id="linearGradient1373-6"
       xlink:href="#linearGradient1371"
       gradientTransform="translate(-175.32178,-70.189361)" />
    <linearGradient
       gradientUnits="userSpaceOnUse"
       y2="161.77312"
       x2="-122.32527"
       y1="162.59995"
       x1="-116.74328"
       id="linearGradient1855-7-9"
       xlink:href="#linearGradient1853"
       gradientTransform="matrix(1.1912214,0,0,1.1826865,-64.287044,-78.856396)" />
    <linearGradient
       gradientUnits="userSpaceOnUse"
       y2="161.5027"
       x2="-132.21489"
       y1="161.04495"
       x1="-132.71222"
       id="linearGradient1847-9-3"
       xlink:href="#linearGradient1845"
       gradientTransform="matrix(1.5158466,0,0,1.3829056,-19.823619,-111.19407)" />
    <linearGradient
       gradientUnits="userSpaceOnUse"
       y2="163.03114"
       x2="-113.28696"
       y1="162.99774"
       x1="-118.4004"
       id="linearGradient1829-7-5"
       xlink:href="#linearGradient1827"
       gradientTransform="translate(-61.441756,-34.343737)" />
    <linearGradient
       y2="188.9933"
       x2="-30.33259"
       y1="188.35547"
       x1="-29.340403"
       gradientTransform="translate(-149.10716,-54.254127)"
       gradientUnits="userSpaceOnUse"
       id="linearGradient2283-4"
       xlink:href="#linearGradient1259" />
    <linearGradient
       gradientTransform="matrix(5.0119436,0,0,4.7236633,252.70547,-621.41737)"
       gradientUnits="userSpaceOnUse"
       y2="192.44487"
       x2="-41.338058"
       y1="189.43806"
       x1="-40.612923"
       id="linearGradient1359-0-7"
       xlink:href="#linearGradient1365" />
    <linearGradient
       gradientUnits="userSpaceOnUse"
       y2="179.70209"
       x2="-39.188393"
       y1="176.46144"
       x1="-38.787491"
       id="linearGradient1222-19-1"
       xlink:href="#linearGradient1220"
       gradientTransform="matrix(5.0119436,0,0,5.0119436,252.70547,-676.76296)" />
    <linearGradient
       gradientUnits="userSpaceOnUse"
       y2="190.78191"
       x2="-33.290253"
       y1="192.55257"
       x1="-32.205975"
       id="linearGradient1432-5-3"
       xlink:href="#linearGradient1371" />
    <linearGradient
       gradientUnits="userSpaceOnUse"
       y2="190.22583"
       x2="-45.235367"
       y1="191.06104"
       x1="-46.772167"
       id="linearGradient1373-6-7"
       xlink:href="#linearGradient1371"
       gradientTransform="matrix(5.0119436,0,0,5.0119436,252.70547,-676.76296)" />
    <linearGradient
       y2="188.9933"
       x2="-30.33259"
       y1="188.35547"
       x1="-29.340403"
       gradientTransform="translate(-149.10716,-54.254127)"
       gradientUnits="userSpaceOnUse"
       id="linearGradient3054"
       xlink:href="#linearGradient1259" />
    <linearGradient
       y2="163.03114"
       x2="-113.28696"
       y1="162.99774"
       x1="-118.4004"
       gradientTransform="translate(-61.441756,-34.343737)"
       gradientUnits="userSpaceOnUse"
       id="linearGradient3056"
       xlink:href="#linearGradient1827" />
    <linearGradient
       gradientUnits="userSpaceOnUse"
       y2="163.03114"
       x2="-113.28696"
       y1="162.99774"
       x1="-118.4004"
       id="linearGradient1829-3"
       xlink:href="#linearGradient1827"
       gradientTransform="rotate(-2.4198264,854.5956,204.65509)" />
    <linearGradient
       gradientUnits="userSpaceOnUse"
       y2="161.5027"
       x2="-132.21489"
       y1="161.04495"
       x1="-132.71222"
       id="linearGradient1847-6"
       xlink:href="#linearGradient1845"
       gradientTransform="rotate(-2.4198264,852.99928,196.78816)" />
    <linearGradient
       gradientUnits="userSpaceOnUse"
       y2="161.77312"
       x2="-122.32527"
       y1="162.59995"
       x1="-116.74328"
       id="linearGradient1855-9"
       xlink:href="#linearGradient1853"
       gradientTransform="rotate(-2.4198264,852.13547,216.23486)" />
    <linearGradient
       gradientUnits="userSpaceOnUse"
       y2="151.3381"
       x2="-117.56519"
       y1="147.99724"
       x1="-126.65235"
       id="linearGradient1817-4"
       xlink:href="#linearGradient1815"
       gradientTransform="rotate(-2.4198264,854.5956,204.65509)" />
    <linearGradient
       gradientTransform="rotate(-2.4198264,854.86018,217.18249)"
       gradientUnits="userSpaceOnUse"
       y2="164.97597"
       x2="-126.32071"
       y1="164.92268"
       x1="-128.75291"
       id="linearGradient1865-2"
       xlink:href="#linearGradient1863" />
    <linearGradient
       gradientUnits="userSpaceOnUse"
       y2="168.55954"
       x2="-118.36817"
       y1="167.42561"
       x1="-123.25568"
       id="linearGradient1839-2"
       xlink:href="#linearGradient1837"
       gradientTransform="rotate(-2.4198264,854.5956,204.65509)" />
    <linearGradient
       gradientTransform="matrix(0.99910828,-0.04222138,0.03979287,0.9416409,-95.417666,30.805669)"
       gradientUnits="userSpaceOnUse"
       y2="192.44487"
       x2="-41.338058"
       y1="189.43806"
       x1="-40.612923"
       id="linearGradient1359-2-2"
       xlink:href="#linearGradient1365" />
    <linearGradient
       gradientUnits="userSpaceOnUse"
       y2="156.28259"
       x2="-107.34213"
       y1="151.10425"
       x1="-125.88394"
       id="linearGradient1809-1"
       xlink:href="#linearGradient1807"
       gradientTransform="rotate(-2.4198264,854.5956,204.65509)" />
    <linearGradient
       gradientTransform="matrix(0.99910828,-0.04222138,0.03979287,0.9416409,-95.834755,30.680477)"
       gradientUnits="userSpaceOnUse"
       y2="192.44487"
       x2="-41.338058"
       y1="189.43806"
       x1="-40.612923"
       id="linearGradient1359-3-8"
       xlink:href="#linearGradient1371" />
    <linearGradient
       gradientUnits="userSpaceOnUse"
       y2="179.70209"
       x2="-39.188393"
       y1="176.46144"
       x1="-38.787491"
       id="linearGradient1222-1-3"
       xlink:href="#linearGradient1220"
       gradientTransform="rotate(-2.4198264,416.98879,2289.6652)" />
    <linearGradient
       gradientUnits="userSpaceOnUse"
       y2="171.79643"
       x2="-118.28874"
       y1="170.39326"
       x1="-123.06935"
       id="linearGradient1897-9"
       xlink:href="#linearGradient1903"
       gradientTransform="rotate(-2.4198264,854.5956,204.65509)" />
    <linearGradient
       gradientUnits="userSpaceOnUse"
       y2="190.78191"
       x2="-33.290253"
       y1="192.55257"
       x1="-32.205975"
       id="linearGradient1432-0-1"
       xlink:href="#linearGradient1371" />
    <linearGradient
       gradientUnits="userSpaceOnUse"
       y2="159.57701"
       x2="-118.18441"
       y1="158.35759"
       x1="-120.20182"
       id="linearGradient1911-3"
       xlink:href="#linearGradient1909"
       gradientTransform="rotate(-2.4198264,854.5956,204.65509)" />
    <linearGradient
       gradientUnits="userSpaceOnUse"
       y2="168.85765"
       x2="-111.61349"
       y1="167.08342"
       x1="-117.74097"
       id="linearGradient1881-7"
       xlink:href="#linearGradient1887"
       gradientTransform="rotate(-2.4198264,847.2512,190.71042)" />
    <linearGradient
       gradientUnits="userSpaceOnUse"
       y2="190.22583"
       x2="-45.235367"
       y1="191.06104"
       x1="-46.772167"
       id="linearGradient1373-8-9"
       xlink:href="#linearGradient1371"
       gradientTransform="rotate(-2.4198264,416.98879,2289.6652)" />
    <linearGradient
       y2="188.9933"
       x2="-30.33259"
       y1="188.35547"
       x1="-29.340403"
       gradientTransform="translate(0.04724702,0.07087053)"
       gradientUnits="userSpaceOnUse"
       id="linearGradient3417"
       xlink:href="#linearGradient1259" />
    <linearGradient
       y2="251.72453"
       x2="86.434967"
       y1="242.93137"
       x1="90.831551"
       gradientUnits="userSpaceOnUse"
       id="linearGradient1328"
       xlink:href="#linearGradient1887" />
    <linearGradient
       y2="250.22783"
       x2="92.141174"
       y1="238.81541"
       x1="95.695854"
       gradientUnits="userSpaceOnUse"
       id="linearGradient1338"
       xlink:href="#linearGradient1837" />
    <linearGradient
       y2="247.14085"
       x2="82.13192"
       y1="240.40567"
       x1="93.450783"
       gradientUnits="userSpaceOnUse"
       id="linearGradient1356"
       xlink:href="#linearGradient1352" />
    <linearGradient
       y2="252.2858"
       x2="30.308365"
       y1="232.26732"
       x1="45.649635"
       gradientUnits="userSpaceOnUse"
       id="linearGradient1366"
       xlink:href="#linearGradient1352" />
    <linearGradient
       y2="249.38593"
       x2="32.834061"
       y1="216.45833"
       x1="24.415073"
       gradientUnits="userSpaceOnUse"
       id="linearGradient1376"
       xlink:href="#linearGradient1352" />
  </defs>
  <metadata
     id="metadata5">
    <rdf:RDF>
      <cc:Work
         rdf:about="">
        <dc:format>image/svg+xml</dc:format>
        <dc:type
           rdf:resource="http://purl.org/dc/dcmitype/StillImage" />
        <dc:title />
      </cc:Work>
    </rdf:RDF>
  </metadata>
  <g
     transform="matrix(3.5273142,0,0,3.5273142,605.37886,-637.167)"
     id="g3908">
    <g
       aria-label="JOT    BA"
       transform="matrix(0.95979224,-9.3651479e-4,-0.01604857,1.0419078,0,0)"
       id="text2144-3-7"
       style="font-weight:bold;font-size:20.5199px;line-height:1.25;font-family:'Bauhaus 93';-inkscape-font-specification:'Bauhaus 93 Bold';letter-spacing:0px;word-spacing:0px;display:inline;fill:#34a83c;stroke-width:0.512998">
      <path
         d="m -167.22469,190.91178 q 0,1.02198 -0.10019,3.06596 -0.0902,2.03395 -0.0902,3.05594 0,0.33064 0.02,0.99193 0.02,0.66128 0.02,0.99193 0,2.65516 -0.47092,4.2182 -0.87169,2.84553 -2.76537,4.54884 -0.22043,0.19037 -0.37073,0.19037 -0.13025,0 -0.27052,-0.15029 -0.50098,-0.58113 -1.543,-1.70331 -0.60117,-0.51099 -1.78347,-1.57306 -0.13025,-0.13025 -0.13025,-0.23045 0,-0.0902 0.11021,-0.20039 0.16031,-0.10019 0.45088,-0.30058 0.84164,-0.66129 1.19232,-1.79349 0.32062,-1.04202 0.32062,-2.91567 0,-1.58308 -0.12023,-4.04787 -0.18035,-3.46674 -0.20039,-4.03785 v -0.12023 q -0.01,-0.25049 0.23045,-0.25049 0.45087,0 1.36264,0.0401 0.91178,0.0401 1.36265,0.0401 0.42082,0 1.26246,-0.0401 0.84164,-0.0401 1.26245,-0.0401 0.25049,0 0.25049,0.26051 z"
         style="font-family:'Berlin Sans FB';-inkscape-font-specification:'Berlin Sans FB Bold'"
         id="path10651" />
      <path
         d="m -150.98311,197.69497 q 0,3.086 -2.17423,5.27024 -2.1642,2.17423 -5.2502,2.17423 -3.09602,0 -5.27025,-2.17423 -2.16421,-2.18424 -2.16421,-5.27024 0,-3.09602 2.16421,-5.28027 2.17423,-2.19427 5.27025,-2.19427 3.086,0 5.2502,2.19427 2.17423,2.18425 2.17423,5.28027 z m -5.12997,0 q 0,-0.97189 -0.67131,-1.66324 -0.66128,-0.70136 -1.62315,-0.70136 -0.98191,0 -1.6432,0.69134 -0.66129,0.69135 -0.66129,1.67326 0,0.95185 0.67131,1.64319 0.68132,0.69134 1.63318,0.69134 0.96187,0 1.62315,-0.68132 0.67131,-0.69134 0.67131,-1.65321 z"
         style="font-family:'Berlin Sans FB';-inkscape-font-specification:'Berlin Sans FB Bold'"
         id="path10653" />
      <path
         d="m -139.4607,194.70916 q 0,0.20039 -0.22043,0.20039 0.25048,0 -2.50487,-0.15029 -0.0401,1.76343 -0.0401,2.27442 0,1.2324 0.10019,3.69719 0.11022,2.46479 0.11022,3.68717 0,0.30058 -0.30059,0.30058 -0.42082,0 -1.28249,-0.0401 -0.86168,-0.0501 -1.29251,-0.0501 -0.4108,0 -1.2324,0.0401 -0.8216,0.0401 -1.2324,0.0401 -0.33064,0 -0.33064,-0.29056 0,-1.22238 0.1002,-3.68717 0.11021,-2.46479 0.11021,-3.69719 0,-0.49096 -0.0401,-2.21431 -0.88171,0.0601 -2.64514,0.22043 -0.16031,-0.0701 -0.16031,-0.0902 0,-0.11022 0.17033,-1.02199 0.19037,-0.99193 0.21041,-1.16226 0.0301,-0.92179 0.20039,-2.21431 0.0301,-0.0802 0.15029,-0.0802 0.0401,0 0.16031,0.02 2.0039,0.22043 4.92959,0.22043 0.89173,0 3.3465,-0.23045 1.22238,-0.12024 1.31256,-0.12024 0.30058,0 0.30058,0.1503 0,0.3607 -0.0501,1.09212 -0.0501,0.7214 -0.0501,1.0821 0,0.34067 0.0902,1.01197 0.0902,0.67131 0.0902,1.01197 z"
         style="font-family:'Berlin Sans FB';-inkscape-font-specification:'Berlin Sans FB Bold'"
         id="path10655" />
      <path
         d="m -105.02374,200.38019 q 0,1.70331 -1.16226,2.99582 -1.20234,1.33259 -2.8756,1.33259 -0.91177,0 -2.72529,-0.0401 -1.81353,-0.0401 -2.71528,-0.0401 -0.52102,0 -1.56304,0.0401 -1.04203,0.0401 -1.55302,0.0401 -0.33065,0 -0.33065,-0.29056 0,-1.09213 0.12024,-3.27637 0.12023,-2.19427 0.12023,-3.28639 0,-1.14222 -0.11021,-4.35848 -0.0301,-0.83161 -0.11022,-2.47481 l -0.01,-0.14027 q -0.02,-0.23045 0.25049,-0.23045 h 6.86335 q 2.52491,0 3.97773,0.98191 0.69134,0.47091 1.10214,1.36265 0.39076,0.84163 0.39076,1.72335 0,0.70136 -0.59115,1.64319 -0.58113,0.94184 -0.58113,0.83162 0,0.0802 0.25049,0.27053 1.25244,0.94183 1.25244,2.91567 z m -5.78125,-5.52074 q 0,-0.78152 -1.56303,-0.78152 -0.35069,0 -0.42082,0.16031 -0.0301,0.0701 -0.0301,0.52102 0,0.44085 0.0401,0.54105 0.0902,0.17033 0.47091,0.17033 1.50292,0 1.50292,-0.61119 z m 0.34067,5.12998 q 0,-0.8216 -1.82355,-0.8216 -0.42082,0 -0.50097,0.15029 -0.0301,0.0601 -0.0301,0.57111 0,0.50098 0.0501,0.59115 0.10019,0.16031 0.54105,0.16031 0.8216,0 1.07208,-0.0401 0.69135,-0.13026 0.69135,-0.61119 z"
         style="font-family:'Berlin Sans FB';-inkscape-font-specification:'Berlin Sans FB Bold'"
         id="path10657" />
      <path
         d="m -89.433432,204.56833 q 0,0.14027 -0.400779,0.14027 -0.430838,0 -1.302533,-0.0401 -0.871695,-0.0401 -1.302532,-0.0401 -0.430838,0 -1.282494,0.0401 -0.851656,0.0401 -1.282494,0.0401 -0.260506,0 -0.300584,-0.30058 0,0.01 0,-0.49096 0,-0.40078 -0.380741,-0.40078 -2.334539,0 -2.735318,0.13026 -0.400779,0.12023 -0.490955,0.62121 -0.08016,0.44085 -0.320623,0.44085 -0.410799,0 -1.232395,-0.0401 -0.8216,-0.0401 -1.2324,-0.0401 -0.40078,0 -1.22237,0.0401 -0.81158,0.0401 -1.21236,0.0401 -0.29057,0 -0.29057,-0.25048 0,-0.30059 4.739218,-13.66658 0.09018,-0.25048 0.160312,-0.30058 0.07014,-0.0601 0.310604,-0.0601 0.350682,0 1.032006,0.0902 0.691345,0.0902 1.042027,0.0902 1.412747,0 1.973838,-0.14027 0.120233,-0.0401 0.170331,-0.0401 0.170331,0 0.400779,0.34066 0.100195,0.1503 0.821598,1.79349 0.57111,1.26246 1.623156,3.81742 0.500974,1.33259 1.34261,4.03785 0.851656,2.70526 1.342611,4.01782 0.03006,0.0902 0.03006,0.13025 z m -6.682994,-6.46257 q 0,-0.79153 -0.881715,-1.32257 -0.881714,0.64125 -0.881714,1.32257 0,0.35069 0.260506,0.62121 0.270526,0.26051 0.621208,0.26051 0.360702,0 0.621208,-0.26051 0.260507,-0.27052 0.260507,-0.62121 z"
         style="font-family:'Berlin Sans FB';-inkscape-font-specification:'Berlin Sans FB Bold'"
         id="path10659" />
    </g>
    <path
       id="path1481-1-9"
       d="m -134.48258,211.25871 c -1.05806,0.44605 -3.00507,0.89448 -3.49708,1.76549 -0.0719,0.12729 -0.1102,0.3365 0.0949,0.58398 0.0271,0.18343 0.1084,0.31265 0.32639,0.36632 0.0626,0.18708 0.61471,0.22074 0.93764,0.0998 l 4.37803,-1.63959 z"
       style="display:inline;fill:url(#linearGradient1373-8-9);fill-opacity:1;stroke:none;stroke-width:0.264583px;stroke-linecap:butt;stroke-linejoin:miter;stroke-opacity:1" />
    <path
       style="display:inline;fill:url(#linearGradient1881-7);fill-opacity:1;stroke:none;stroke-width:0.264583px;stroke-linecap:butt;stroke-linejoin:miter;stroke-opacity:1"
       d="m -116.36234,210.50759 c 0,0 2.83159,-1.2267 3.81471,-2.35127 1.11724,-1.27799 1.97626,-3.17544 2.06882,-4.65333 0.0247,-0.39486 -0.30999,-0.28952 -0.30999,-0.28952 l -5.58947,6.16262 z"
       id="path1782-8" />
    <g
       style="display:inline"
       id="g2176-7-5"
       transform="rotate(-2.4198264,425.41316,2291.1659)">
      <path
         style="display:inline;fill:url(#linearGradient3417);fill-opacity:1;stroke:none;stroke-width:0.264583px;stroke-linecap:butt;stroke-linejoin:miter;stroke-opacity:1"
         d="m -30.705453,187.32658 c 1.900164,-0.91101 5.352386,-2.34135 3.174317,-6.19157 -1.169092,-2.06664 -1.661011,-2.78107 -0.935934,-4.23194 0.408616,-0.81763 0.937488,-1.4146 2.53906,-1.03567 1.724902,0.40811 3.103524,1.35702 3.507912,3.4745 0.438814,2.29774 0.471113,4.58879 -1.052373,6.56481 -1.732139,2.24665 -4.517407,3.46081 -7.600477,3.85871 z"
         id="path1477-9-7" />
      <path
         id="path2041-6-96"
         d="m -27.977875,180.34017 c 1.397515,-0.13669 3.112293,-1.19686 4.786566,-2.83971 0.768668,0.98431 0.906015,2.06312 0.958841,3.04743 -1.036874,1.32263 -2.823533,1.88375 -4.677457,2.13793 -0.290804,-1.13308 -0.69704,-1.59715 -1.06795,-2.34565 z"
         style="fill:#7a4837;fill-opacity:1;stroke:none;stroke-width:0.264583px;stroke-linecap:butt;stroke-linejoin:miter;stroke-opacity:1" />
      <path
         id="path2043-8-0"
         d="m -26.93629,184.16647 c 1.678423,0.33053 3.298713,-0.18502 4.657353,-0.97274 -0.146673,1.13496 -0.64313,2.14742 -1.515363,3.10303 -1.221856,0.49386 -2.813431,-0.0921 -4.248545,-0.51234 0.468099,-0.49401 0.882225,-0.91064 1.106555,-1.61795 z"
         style="fill:#7a4837;fill-opacity:1;stroke:none;stroke-width:0.264583px;stroke-linecap:butt;stroke-linejoin:miter;stroke-opacity:1" />
    </g>
    <path
       id="path1638-7-3"
       d="m -122.1548,198.43789 3.21302,2.11451 -0.9524,2.64115 -3.66503,-2.80069 z"
       style="display:inline;opacity:0.97;fill:url(#linearGradient1911-3);fill-opacity:1;stroke:none;stroke-width:0.264583px;stroke-linecap:butt;stroke-linejoin:miter;stroke-opacity:1" />
    <path
       id="path1638-82-3-2"
       d="m -131.9889,198.3659 -3.84484,2.1253 0.9734,2.55138 3.16764,-2.70305 z"
       style="display:inline;fill:#eeae4c;fill-opacity:1;stroke:none;stroke-width:0.264583px;stroke-linecap:butt;stroke-linejoin:miter;stroke-opacity:1" />
    <g
       style="display:inline"
       id="g1439-2-9"
       transform="matrix(1.1932685,-0.05042641,0.04853657,1.148548,-91.119858,-9.2645221)">
      <path
         style="display:inline;fill:url(#linearGradient1432-0-1);fill-opacity:1;stroke:none;stroke-width:0.264583px;stroke-linecap:butt;stroke-linejoin:miter;stroke-opacity:1"
         d="m -33.224944,191.03089 c 1.196423,0.29363 2.576638,0.8875 3.624843,2.02122 0.08867,0.0959 0.125344,0.23117 0.024,0.28534 0.0463,0.17819 -0.142442,0.38626 -0.311394,0.38192 0.01054,0.29253 -0.880127,0.0898 -1.182584,0.0343 l -3.301279,-1.62288 z"
         id="path1479-0-21" />
      <g
         transform="translate(-1.916281,0.58161223)"
         style="fill:#222327;fill-opacity:1;stroke:none"
         id="g2018-4-0">
        <path
           id="path1066-0-0-3-9-2-5-3-9-7"
           d="m -27.787532,192.68747 c -0.33579,-0.44722 -0.778534,-0.68133 -1.086354,-0.52559 0,0 0.369676,0.0375 0.51645,0.12298 0.179224,0.10442 0.569905,0.40261 0.569904,0.40261 z"
           style="display:inline;fill:#222327;fill-opacity:1;stroke:none;stroke-width:0.105246px;stroke-linecap:butt;stroke-linejoin:miter;stroke-opacity:1" />
        <path
           style="display:inline;fill:#222327;fill-opacity:1;stroke:none;stroke-width:0.105246px;stroke-linecap:butt;stroke-linejoin:miter;stroke-opacity:1"
           d="m -28.087353,193.06905 c -0.335786,-0.44722 -0.778534,-0.68133 -1.086355,-0.52559 0,0 0.369676,0.0375 0.516454,0.12298 0.17922,0.10442 0.569901,0.40261 0.569901,0.40261 z"
           id="path1066-0-0-3-1-5-8-7-4-4-6" />
      </g>
    </g>
    <path
       style="display:inline;fill:url(#linearGradient1897-9);fill-opacity:1;stroke:none;stroke-width:0.264583px;stroke-linecap:butt;stroke-linejoin:miter;stroke-opacity:1"
       d="m -122.78868,213.15019 2.12015,0.91356 c 1.09461,-0.15025 1.91289,-0.46692 1.60172,-1.46374 l -1.72679,-0.70448 z"
       id="path1889-5" />
    <path
       id="path1466-4-1"
       d="m -132.26084,198.15724 c -1.28046,3.33783 -2.57942,6.67303 -2.67966,10.17823 -0.76062,3.08886 0.80237,4.64787 5.65469,4.04117 1.42714,-0.26889 2.85656,0.15069 4.63591,0.50629 2.05038,0.40977 4.64909,0.83808 5.47272,-2.63883 0.38661,-1.99519 -0.32254,-4.09994 -0.82981,-6.1845 l -1.48134,-5.21698 c -3.16837,-2.90042 -10.01004,-1.43325 -10.77251,-0.68538 z"
       style="display:inline;fill:url(#linearGradient1222-1-3);fill-opacity:1;stroke:none;stroke-width:0.264583px;stroke-linecap:butt;stroke-linejoin:miter;stroke-opacity:1" />
    <path
       id="path1475-0-33"
       d="m -131.3331,212.19756 c -1.46248,-4.08741 -2.54176,-7.93856 0.81048,-10.11901 1.86471,-1.2129 4.38722,-1.58253 6.19977,0.29461 3.39495,3.51595 2.89832,7.54597 0.13192,10.58263 0.002,0.16283 -2.02087,-0.36886 -3.40106,-0.5719 -1.39193,-0.20477 -3.95533,0.69967 -3.74111,-0.18633 z"
       style="display:inline;fill:url(#linearGradient1359-3-8);fill-opacity:1;stroke:none;stroke-width:0.24849px;stroke-linecap:butt;stroke-linejoin:miter;stroke-opacity:1" />
    <path
       style="display:inline;fill:#eeab48;fill-opacity:1;stroke:none;stroke-width:0.264583px;stroke-linecap:butt;stroke-linejoin:miter;stroke-opacity:1"
       d="m -121.50386,198.88047 c 0,0 2.69948,1.44666 2.81817,2.01718 0.0906,0.43561 -2.07529,0.88971 -2.07529,0.88971 -0.19832,-0.97105 -0.45579,-1.93959 -0.74288,-2.90689 z"
       id="path1913-6" />
    <path
       id="path1466-0-4-6"
       d="m -133.15087,197.94947 c 5.85961,2.47963 8.34367,1.52271 11.61007,0.9219 4.24342,-1.02478 5.72436,-2.63838 5.61106,-4.5918 0.60221,-2.84707 0.002,-4.78464 -1.07277,-6.36235 1.66642,-0.60934 3.23567,-1.30964 2.44631,-4.21754 -1.09216,-1.98733 -2.41553,-2.05089 -3.76776,-1.87422 -1.49599,0.41452 -2.54294,1.19411 -2.43037,2.91641 -3.47195,-1.71195 -6.96616,-1.6448 -10.47883,-0.101 -0.0865,-1.85625 -0.76764,-2.77797 -2.08925,-3.29007 -2.07149,-0.001 -3.45147,0.63232 -3.53861,2.65783 0.0966,1.43286 0.42562,2.69304 2.21749,2.73886 -1.30611,1.85859 -2.32221,3.69001 -2.4267,5.80091 -0.54635,3.76088 0.79716,3.94892 3.91936,5.40107 z"
       style="display:inline;fill:url(#linearGradient1809-1);fill-opacity:1;stroke:none;stroke-width:0.264583px;stroke-linecap:butt;stroke-linejoin:miter;stroke-opacity:1"
       sodipodi:nodetypes="ccccccccccccc" />
    <path
       id="path1475-6-9"
       d="m -130.91602,212.32276 c -1.46248,-4.08741 -2.54175,-7.93855 0.81049,-10.119 1.86471,-1.21291 4.38721,-1.58254 6.19976,0.29461 3.39496,3.51594 2.89833,7.54596 0.13193,10.58262 0.002,0.16283 -2.02087,-0.36886 -3.40106,-0.5719 -1.39193,-0.20476 -3.95533,0.69967 -3.74112,-0.18633 z"
       style="display:inline;fill:url(#linearGradient1359-2-2);fill-opacity:1;stroke:none;stroke-width:0.24849px;stroke-linecap:butt;stroke-linejoin:miter;stroke-opacity:1" />
    <path
       style="display:inline;opacity:0.404;fill:url(#linearGradient1839-2);fill-opacity:1;stroke:none;stroke-width:0.264583px;stroke-linecap:butt;stroke-linejoin:miter;stroke-opacity:1"
       d="m -119.44688,206.33134 c 0.0914,1.84169 1.16964,3.31358 -0.63873,5.8672 -0.51723,0.45118 -0.9627,0.94311 -2.22894,0.96905 l -1.71865,-0.1047 z"
       id="path1831-7" />
    <g
       aria-label="O"
       transform="matrix(0.99540097,-0.00811327,-0.01581665,1.0047492,0,0)"
       id="text2144-3-4-30"
       style="font-weight:bold;font-size:21.3236px;line-height:1.25;font-family:'Bauhaus 93';-inkscape-font-specification:'Bauhaus 93 Bold';letter-spacing:0px;word-spacing:0px;display:inline;fill:#34a83c;stroke-width:0.53309">
      <path
         d="m -116.70805,204.15336 q 0,3.20687 -2.25939,5.47666 -2.24897,2.25939 -5.45584,2.25939 -3.21729,0 -5.47667,-2.25939 -2.24897,-2.26979 -2.24897,-5.47666 0,-3.21729 2.24897,-5.48708 2.25938,-2.28021 5.47667,-2.28021 3.20687,0 5.45584,2.28021 2.25939,2.26979 2.25939,5.48708 z m -5.33091,0 q 0,-1.00996 -0.69759,-1.72838 -0.68719,-0.72884 -1.68673,-0.72884 -1.02037,0 -1.70756,0.71843 -0.68718,0.71842 -0.68718,1.73879 0,0.98913 0.69759,1.70755 0.70801,0.71842 1.69715,0.71842 0.99954,0 1.68673,-0.70801 0.69759,-0.71842 0.69759,-1.71796 z"
         style="font-family:'Berlin Sans FB';-inkscape-font-specification:'Berlin Sans FB Bold'"
         id="path10699" />
    </g>
    <path
       id="path1471-6-7"
       d="m -119.52286,185.44733 c 1.20434,0.50609 1.6971,1.20216 2.12074,1.91669 0.88539,-0.32316 1.46282,-1.25946 1.31729,-2.06198 -0.16947,-0.93441 -1.34564,-1.88349 -2.27919,-1.70936 -0.71661,0.13366 -1.37739,0.78281 -1.15884,1.85465 z"
       style="display:inline;fill:#7a4837;fill-opacity:1;stroke:none;stroke-width:0.264583px;stroke-linecap:butt;stroke-linejoin:miter;stroke-opacity:1" />
    <path
       id="path1473-0-7"
       d="m -131.36669,193.20399 c -4.08394,1.16959 -4.31492,-1.99899 -2.74838,-4.89963 1.19931,-2.22069 3.84888,-3.19758 8.27372,-2.82409 4.37911,0.36963 7.42369,2.2781 7.59303,5.59774 0.18321,3.59177 -3.68893,3.83061 -5.7743,2.58402 -3.60739,-2.15642 -4.81668,-1.18186 -7.34407,-0.45804 z"
       style="display:inline;fill:url(#linearGradient1817-4);fill-opacity:1;stroke:none;stroke-width:0.264583px;stroke-linecap:butt;stroke-linejoin:miter;stroke-opacity:1" />
    <path
       style="display:inline;fill:none;stroke:none;stroke-width:0.147101;stroke-linecap:round;stroke-linejoin:miter;stroke-miterlimit:4;stroke-dasharray:none;stroke-opacity:1"
       d="m -128.84595,207.89203 c 0.62269,0.44858 1.23854,0.95251 1.79578,1.93087"
       id="path879-1-8-9" />
    <path
       style="display:inline;fill:none;stroke:none;stroke-width:0.147101;stroke-linecap:round;stroke-linejoin:miter;stroke-miterlimit:4;stroke-dasharray:none;stroke-opacity:1"
       d="m -126.88368,208.38613 c -0.84817,0.1014 -1.51685,0.65656 -2.08697,1.0135"
       id="path881-3-38-9" />
    <path
       id="path1471-9-7-5"
       d="m -131.90638,184.89064 c -1.04831,0.38848 -1.66476,0.68218 -2.26463,1.39267 -0.90949,-0.24731 -1.61431,-0.85449 -1.5906,-1.60807 0.0298,-0.94918 1.1801,-1.96991 2.12684,-1.89556 0.90664,0.0712 1.85573,1.02451 1.72839,2.11096 z"
       style="display:inline;fill:#7a4837;fill-opacity:1;stroke:none;stroke-width:0.264583px;stroke-linecap:butt;stroke-linejoin:miter;stroke-opacity:1" />
    <path
       style="display:inline;fill:#eeab48;fill-opacity:1;stroke:none;stroke-width:0.264583px;stroke-linecap:butt;stroke-linejoin:miter;stroke-opacity:1"
       d="m -127.07188,193.4717 c 0,0 0.39055,-0.16224 0.56139,-0.28381 0.19314,-0.13745 0.51111,-0.49449 0.51111,-0.49449 l -0.18125,-0.0928 -0.82169,0.41894 -0.29195,0.22514 z"
       id="path1801-1" />
    <path
       style="display:inline;fill:#222327;fill-opacity:1;stroke:none;stroke-width:0.152914px;stroke-linecap:butt;stroke-linejoin:miter;stroke-opacity:1"
       d="m -128.07499,191.83226 c 0.3753,-0.55938 1.78184,-0.45027 2.01258,0.1826 0.204,0.55958 -0.66921,1.3584 -1.25805,1.26889 -0.5391,-0.0819 -1.05834,-0.99866 -0.75453,-1.45149 z"
       id="path1011-5-6-4" />
    <path
       style="display:inline;fill:#eeab48;fill-opacity:1;stroke:none;stroke-width:0.264583px;stroke-linecap:butt;stroke-linejoin:miter;stroke-opacity:1"
       d="m -128.98707,195.29052 c 0.62301,-0.0323 1.10933,-0.50659 1.65076,-0.80275 0.49203,0.48725 1.3445,1.02398 1.94796,1.19449 l -1.92969,-1.88095 -0.58673,0.6632 c -0.29483,0.40815 -0.83634,0.51481 -1.31841,0.69412 z"
       id="path1799-6" />
    <path
       style="display:inline;fill:#222327;fill-opacity:1;stroke:none;stroke-width:0.156652px;stroke-linecap:butt;stroke-linejoin:miter;stroke-opacity:1"
       d="m -127.28544,192.7872 c -0.77797,3.46229 -2.68654,1.79789 -4.10559,1.21757 0,0 1.53183,1.21341 2.37774,1.24463 0.62256,0.0229 1.70069,-1.10646 1.70069,-1.10646 0,0 1.24382,1.51248 2.01703,1.56443 0.70876,0.0475 1.81065,-0.99146 1.81065,-0.99146 -1.35414,1.07044 -3.14096,0.94031 -3.80052,-1.92871 z"
       id="path1013-0-4-8" />
    <ellipse
       ry="2.0659966"
       rx="2.1046135"
       cy="202.793"
       cx="-111.34994"
       id="path992-7-8-6-0-3"
       style="display:inline;fill:#ffcc00;fill-opacity:1;stroke:none;stroke-width:0.615511;stroke-linecap:round;stroke-miterlimit:4;stroke-dasharray:none;stroke-opacity:1"
       transform="rotate(5.9576457)" />
    <circle
       r="1.4448617"
       cy="202.793"
       cx="-111.34994"
       id="path994-1-0-0-2-2"
       style="display:inline;fill:#222327;fill-opacity:1;stroke:none;stroke-width:0.636525;stroke-linecap:round;stroke-miterlimit:4;stroke-dasharray:none;stroke-opacity:1"
       transform="rotate(5.9576457)" />
    <ellipse
       ry="2.0659966"
       rx="2.1046135"
       cy="202.71506"
       cx="-101.01967"
       id="path992-7-3-2-7-2"
       style="display:inline;fill:#ffcc00;fill-opacity:1;stroke:none;stroke-width:0.615511;stroke-linecap:round;stroke-miterlimit:4;stroke-dasharray:none;stroke-opacity:1"
       transform="rotate(5.9576457)" />
    <circle
       r="1.4448617"
       cy="202.71506"
       cx="-101.01967"
       id="path994-1-07-1-8-4"
       style="display:inline;fill:#222327;fill-opacity:1;stroke:none;stroke-width:0.636525;stroke-linecap:round;stroke-miterlimit:4;stroke-dasharray:none;stroke-opacity:1"
       transform="rotate(5.9576457)" />
    <path
       style="display:inline;fill:#6e4132;fill-opacity:1;stroke:none;stroke-width:0.264583px;stroke-linecap:butt;stroke-linejoin:miter;stroke-opacity:1"
       d="m -129.55429,185.59018 c 0,0 0.96033,0.88754 1.4715,1.19176 0.76122,0.45302 1.56166,0.54737 2.44748,0.54862 0.91429,0.001 1.64848,-0.23096 2.51987,-0.50775 0.38634,-0.12272 1.0759,-0.50398 1.0759,-0.50398 l -0.5221,-0.23835 z"
       id="path1786-6" />
    <path
       style="display:inline;fill:#eeab48;fill-opacity:1;stroke:none;stroke-width:0.264583px;stroke-linecap:butt;stroke-linejoin:miter;stroke-opacity:1"
       d="m -122.04791,186.32561 c 0.20584,-0.1433 0.44713,-0.27314 0.58037,-0.44399 -0.30737,0.0384 -0.33311,0.0257 -0.69916,0.0266 l -0.35155,0.20819 z"
       id="path1819-1" />
    <path
       id="path1569-3-4"
       d="m -128.82524,182.37749 c 1.9136,-1.33439 3.44185,-0.76136 4.7332,0.9844 0.64142,0.96304 1.20748,2.0956 2.11297,2.46475 -1.45623,1.19054 -3.15346,1.85737 -4.88663,1.30993 -2.45123,-0.77424 -3.77903,-2.35717 -1.95954,-4.75908 z"
       style="display:inline;fill:#50c058;fill-opacity:1;stroke:none;stroke-width:0.183089px;stroke-linecap:butt;stroke-linejoin:miter;stroke-opacity:1" />
    <path
       id="path1573-02-2"
       d="m -130.03773,182.47131 c 0,0 1.11164,0.84694 1.78858,0.97864 0.5277,0.10275 1.55859,-0.18837 1.55859,-0.18837 0,0 -1.13555,0.16932 -1.1332,0.55186 0.003,0.48219 0.9191,0.6534 1.43824,0.89345 0.74351,0.34378 2.3551,0.76179 2.3551,0.76179 0,0 -0.93255,0.07 -1.39652,-0.009 -0.12593,-0.0214 0.66798,1.14803 0.54777,1.09679 -0.12017,-0.0514 -1.15443,-1.32357 -1.27267,-1.38084 -0.23653,-0.11448 -0.473,-0.21671 -0.72477,-0.21028 -0.28345,0.007 -0.82589,0.5793 -0.82589,0.5793 0.0157,-0.78815 -0.22779,-1.09373 -0.68252,-1.41889 -0.64452,-0.46086 -1.8204,-1.31734 -1.8204,-1.31734 z"
       style="display:inline;fill:#34a83c;fill-opacity:1;stroke:none;stroke-width:0.199896px;stroke-linecap:butt;stroke-linejoin:miter;stroke-opacity:1" />
    <g
       transform="matrix(-0.99910828,0.04222138,0.04222138,0.99910828,-173.73664,22.217146)"
       style="display:inline;fill:#222327;fill-opacity:1;stroke:none"
       id="g2018-0-5-7">
      <path
         style="display:inline;fill:#222327;fill-opacity:1;stroke:none;stroke-width:0.105246px;stroke-linecap:butt;stroke-linejoin:miter;stroke-opacity:1"
         d="m -27.787532,192.68747 c -0.33579,-0.44722 -0.778534,-0.68133 -1.086354,-0.52559 0,0 0.369676,0.0375 0.51645,0.12298 0.179224,0.10442 0.569905,0.40261 0.569904,0.40261 z"
         id="path1066-0-0-3-9-2-5-3-4-0-7" />
      <path
         id="path1066-0-0-3-1-5-8-7-4-6-2-4"
         d="m -28.087353,193.06905 c -0.335786,-0.44722 -0.778534,-0.68133 -1.086355,-0.52559 0,0 0.369676,0.0375 0.516454,0.12298 0.17922,0.10442 0.569901,0.40261 0.569901,0.40261 z"
         style="display:inline;fill:#222327;fill-opacity:1;stroke:none;stroke-width:0.105246px;stroke-linecap:butt;stroke-linejoin:miter;stroke-opacity:1" />
    </g>
    <path
       style="display:inline;fill:url(#linearGradient1855-9);fill-opacity:1;stroke:none;stroke-width:0.264583px;stroke-linecap:butt;stroke-linejoin:miter;stroke-opacity:1"
       d="m -121.94372,202.13747 c 0,0 -0.10322,0.46341 -0.007,0.66236 0.0449,0.0931 0.16936,0.11969 0.2445,0.19064 0.169,0.15958 0.27726,0.38025 0.45959,0.52441 0.34264,0.27091 1.60458,0.61311 1.60458,0.61311 -0.0372,-0.53043 -0.4678,-1.22754 -0.67591,-1.75075 z"
       id="path1765-49" />
    <path
       style="display:inline;fill:url(#linearGradient1847-6);fill-opacity:1;stroke:none;stroke-width:0.264583px;stroke-linecap:butt;stroke-linejoin:miter;stroke-opacity:1"
       d="m -132.55545,201.64233 c 0,0 0.34221,0.44459 0.26356,0.65091 -0.0368,0.0965 -0.15865,0.13355 -0.22754,0.21059 -0.15493,0.17327 -0.24419,0.40228 -0.41371,0.56131 -0.31855,0.29886 -1.25558,0.34883 -1.25558,0.34883 0.15706,-0.55371 0.26742,-0.71887 0.43002,-1.25769 z"
       id="path1765-4-7" />
    <path
       style="display:inline;fill:#eeab48;fill-opacity:1;stroke:none;stroke-width:0.264583px;stroke-linecap:butt;stroke-linejoin:miter;stroke-opacity:1"
       d="m -132.47453,198.67798 c 0,0 -2.77584,1.29412 -2.9261,1.85714 -0.1147,0.42989 2.02251,1.00389 2.02251,1.00389 0.25208,-0.95851 0.56308,-1.91121 0.90359,-2.86103 z"
       id="path1913-3-62" />
    <g
       id="g3464"
       transform="translate(-0.49110776,-0.09354433)">
      <path
         style="display:inline;fill:#f0b761;fill-opacity:1;stroke:none;stroke-width:0.194952px;stroke-linecap:butt;stroke-linejoin:miter;stroke-opacity:1"
         d="m -121.48235,202.29212 c 0.009,-0.89554 1.04138,-1.68069 1.90123,-1.79088 0.83704,-0.10723 1.97446,0.568 2.14255,1.45248 0.12907,0.67914 -0.49215,1.49527 -1.11058,1.69751 -0.47958,0.15684 -1.53624,0.29982 -1.85315,-0.12256 -0.2884,0.0451 -0.67263,-0.35697 -0.75574,-0.72692 -0.21661,-0.0132 -0.32705,-0.24124 -0.32431,-0.50963 z"
         id="path1166-9-8-3-2" />
      <g
         transform="matrix(0.31430823,0.21487953,-0.19930068,0.33469575,-71.765697,147.8883)"
         id="g1955-9-5"
         style="display:inline;stroke:none">
        <path
           id="path1066-0-0-3-9-2-5-7-9"
           d="m -36.799681,185.25886 c -0.96086,1.02636 -1.34744,2.2246 -0.82763,2.91881 0,0 -0.0684,-0.9316 0.0793,-1.33227 0.18038,-0.48926 0.74832,-1.58654 0.74832,-1.58654 z"
           style="display:inline;fill:#000000;fill-opacity:1;stroke:none;stroke-width:0.264583px;stroke-linecap:butt;stroke-linejoin:miter;stroke-opacity:1" />
        <path
           style="display:inline;fill:#000000;fill-opacity:1;stroke:none;stroke-width:0.264583px;stroke-linecap:butt;stroke-linejoin:miter;stroke-opacity:1"
           d="m -34.145051,185.5567 c -0.96086,1.02635 -1.34744,2.2246 -0.82762,2.91881 0,0 -0.0684,-0.9316 0.0793,-1.33228 0.18038,-0.48925 0.74832,-1.58653 0.74832,-1.58653 z"
           id="path1066-0-0-3-1-5-8-7-3-7" />
      </g>
    </g>
    <g
       style="display:inline"
       id="g1491-4-0"
       transform="matrix(0.93466206,-0.03949795,0.04222138,0.99910828,-98.007081,18.578803)">
      <path
         style="display:inline;fill:#f0b761;fill-opacity:1;stroke:none;stroke-width:0.201561px;stroke-linecap:butt;stroke-linejoin:miter;stroke-opacity:1"
         d="m -44.933497,181.39745 c -0.05021,-0.89436 -1.27211,-1.63528 -2.195398,-1.70906 -0.898793,-0.0718 -2.0166,0.57484 -2.156207,1.46563 -0.107193,0.68399 0.610687,1.54922 1.280297,1.72517 0.519264,0.13645 1.654226,0.23469 1.973631,-0.2007 0.310041,0.0329 0.702255,-0.38505 0.774313,-0.75818 0.23075,-0.0223 0.33841,-0.25483 0.323364,-0.52286 z"
         id="path1166-9-8-2-5-4"
         sodipodi:nodetypes="scssccs" />
      <g
         transform="matrix(-0.32598254,0.22795845,0.22795845,0.32598254,-100.48617,129.14125)"
         id="g1955-5-5-4"
         style="display:inline;stroke:none">
        <path
           id="path1066-0-0-3-9-2-5-56-6-4"
           d="m -36.799681,185.25886 c -0.96086,1.02636 -1.34744,2.2246 -0.82763,2.91881 0,0 -0.0684,-0.9316 0.0793,-1.33227 0.18038,-0.48926 0.74832,-1.58654 0.74832,-1.58654 z"
           style="display:inline;fill:#000000;fill-opacity:1;stroke:none;stroke-width:0.264583px;stroke-linecap:butt;stroke-linejoin:miter;stroke-opacity:1" />
        <path
           style="display:inline;fill:#000000;fill-opacity:1;stroke:none;stroke-width:0.264583px;stroke-linecap:butt;stroke-linejoin:miter;stroke-opacity:1"
           d="m -34.145051,185.5567 c -0.96086,1.02635 -1.34744,2.2246 -0.82762,2.91881 0,0 -0.0684,-0.9316 0.0793,-1.33228 0.18038,-0.48925 0.74832,-1.58653 0.74832,-1.58653 z"
           id="path1066-0-0-3-1-5-8-7-2-0-1" />
      </g>
    </g>
    <path
       style="display:inline;opacity:0.294;fill:url(#linearGradient1829-3);fill-opacity:1;stroke:none;stroke-width:0.264583px;stroke-linecap:butt;stroke-linejoin:miter;stroke-opacity:1"
       d="m -117.6072,199.32063 c 0,0 2.55497,2.67388 2.89675,4.40127 0.16226,0.82008 -0.021,1.76346 -0.48116,2.46134 -0.86596,1.3131 -3.90038,2.656 -3.90038,2.656 l -0.0294,-0.37878 c 0.88468,-0.48408 1.66444,-0.76967 2.84265,-1.87768 0.74722,-0.87944 0.98096,-1.82899 0.76649,-2.84372 -0.16127,-0.76303 -0.76218,-1.64862 -1.19019,-2.37873 -0.25047,-0.39451 -0.48192,-0.79714 -0.64376,-1.15587 -0.16184,-0.35874 -0.23932,-0.66697 -0.26098,-0.88383 z"
       id="path1821-7" />
  </g>
</svg>
