<?xml version="1.0" encoding="UTF-8" standalone="no"?>
<!-- Created with Inkscape (http://www.inkscape.org/) -->

<svg
   width="52mm"
   height="52mm"
   viewBox="0 0 52 52"
   version="1.1"
   id="svg1624"
   inkscape:version="1.1 (c68e22c387, 2021-05-23)"
   sodipodi:docname="JotoHeadV1.svg"
   xmlns:inkscape="http://www.inkscape.org/namespaces/inkscape"
   xmlns:sodipodi="http://sodipodi.sourceforge.net/DTD/sodipodi-0.dtd"
   xmlns="http://www.w3.org/2000/svg"
   xmlns:svg="http://www.w3.org/2000/svg"
   xmlns:rdf="http://www.w3.org/1999/02/22-rdf-syntax-ns#"
   xmlns:cc="http://creativecommons.org/ns#"
   xmlns:dc="http://purl.org/dc/elements/1.1/">
  <defs
     id="defs1618">
    <linearGradient
       id="linearGradient1015">
      <stop
         id="stop1011"
         offset="0"
         style="stop-color:#ffffff;stop-opacity:1" />
      <stop
         id="stop1013"
         offset="1"
         style="stop-color:#ececec;stop-opacity:1" />
    </linearGradient>
    <linearGradient
       id="linearGradient1371">
      <stop
         id="stop1367"
         offset="0"
         style="stop-color:#f0b761;stop-opacity:1;" />
      <stop
         id="stop1369"
         offset="1"
         style="stop-color:#eead4a;stop-opacity:1" />
    </linearGradient>
    <linearGradient
       id="linearGradient1259">
      <stop
         id="stop1255"
         offset="0"
         style="stop-color:#f0b761;stop-opacity:1;" />
      <stop
         id="stop1257"
         offset="1"
         style="stop-color:#eeac49;stop-opacity:1" />
    </linearGradient>
    <linearGradient
       id="linearGradient1827">
      <stop
         id="stop1823"
         offset="0"
         style="stop-color:#eeab48;stop-opacity:1" />
      <stop
         id="stop1825"
         offset="1"
         style="stop-color:#140c02;stop-opacity:0;" />
    </linearGradient>
  </defs>
  <sodipodi:namedview
     id="base"
     pagecolor="#ffffff"
     bordercolor="#666666"
     borderopacity="1.0"
     inkscape:pageopacity="0.0"
     inkscape:pageshadow="2"
     inkscape:zoom="0.98994949"
     inkscape:cx="27.274119"
     inkscape:cy="101.01525"
     inkscape:document-units="mm"
     inkscape:current-layer="layer1"
     showgrid="false"
     inkscape:window-width="1900"
     inkscape:window-height="1096"
     inkscape:window-x="164"
     inkscape:window-y="48"
     inkscape:window-maximized="0"
     inkscape:pagecheckerboard="0" />
  <metadata
     id="metadata1621">
    <rdf:RDF>
      <cc:Work
         rdf:about="">
        <dc:format>image/svg+xml</dc:format>
        <dc:type
           rdf:resource="http://purl.org/dc/dcmitype/StillImage" />
      </cc:Work>
    </rdf:RDF>
  </metadata>
  <g
     inkscape:label="Ebene 1"
     inkscape:groupmode="layer"
     id="layer1">
    <g
       id="g1720"
       transform="translate(209.67781,250.81108)">
      <path
         sodipodi:nodetypes="csssscc"
         inkscape:connector-curvature="0"
         id="path1627"
         d="m -193.68238,-236.9654 c 0,0 -0.10617,-5.1518 -1.73358,-6.87241 -1.93045,-2.041 -5.18029,-2.95208 -7.92493,-2.35271 -1.95952,0.42792 -3.74046,2.07976 -4.5816,3.90056 -0.91744,1.98594 -1.13162,4.69064 -1e-5,6.56283 1.4469,2.39379 7.42963,3.90055 7.42963,3.90055 z"
         style="fill:#f0b761;fill-opacity:1;stroke:none;stroke-width:0.264583px;stroke-linecap:butt;stroke-linejoin:miter;stroke-opacity:1" />
      <path
         sodipodi:nodetypes="csssscc"
         inkscape:connector-curvature="0"
         id="path1627-4"
         d="m -196.94843,-236.88673 c 0,0 0.79819,-4.17421 -0.25193,-5.32019 -1.24577,-1.35935 -3.34296,-1.96617 -5.11413,-1.56696 -1.26453,0.285 -2.4138,1.38518 -2.9566,2.59788 -0.59205,1.32269 -0.73026,3.12409 -1e-5,4.37103 0.93371,1.59432 5.78512,1.85491 5.78512,1.85491 z"
         style="fill:#7a4837;fill-opacity:1;stroke:none;stroke-width:0.173459px;stroke-linecap:butt;stroke-linejoin:miter;stroke-opacity:1" />
      <g
         transform="matrix(-1,0,0,1,-369.53518,5.5522615)"
         id="g1698">
        <path
           style="fill:#f0b761;fill-opacity:1;stroke:none;stroke-width:0.264583px;stroke-linecap:butt;stroke-linejoin:miter;stroke-opacity:1"
           d="m -196.31406,-242.60955 c 0,0 -0.10617,-5.1518 -1.73358,-6.87241 -1.93045,-2.041 -5.18029,-2.95208 -7.92493,-2.35271 -1.95952,0.42792 -3.74046,2.07976 -4.5816,3.90056 -0.91744,1.98594 -1.13162,4.69064 -1e-5,6.56283 1.4469,2.39379 7.42963,3.90055 7.42963,3.90055 z"
           id="path1627-9"
           inkscape:connector-curvature="0"
           sodipodi:nodetypes="csssscc" />
        <path
           style="fill:#7a4837;fill-opacity:1;stroke:none;stroke-width:0.173459px;stroke-linecap:butt;stroke-linejoin:miter;stroke-opacity:1"
           d="m -199.58011,-242.53088 c 0,0 0.79819,-4.17421 -0.25193,-5.32019 -1.24577,-1.35935 -3.34296,-1.96617 -5.11413,-1.56696 -1.26453,0.285 -2.4138,1.38518 -2.9566,2.59788 -0.59205,1.32269 -0.73026,3.12409 -1e-5,4.37103 0.93371,1.59432 5.78512,1.85491 5.78512,1.85491 z"
           id="path1627-4-4"
           inkscape:connector-curvature="0"
           sodipodi:nodetypes="csssscc" />
      </g>
      <path
         sodipodi:nodetypes="csssssssc"
         inkscape:connector-curvature="0"
         id="path1609"
         d="m -196.43853,-238.55439 c 7.02936,-5.09081 18.60344,-5.15628 26.04879,0.0438 5.88083,4.10737 8.77848,11.21802 11.32376,18.05839 1.3246,3.55983 0.99326,7.10344 -2.05013,10.1356 -5.91434,5.89251 -13.88478,7.91686 -22.23235,8.05542 -8.43465,0.14001 -17.40203,-2.18688 -23.46199,-8.05542 -2.48384,-2.40538 -2.91379,-6.75117 -1.63116,-10.14622 2.65363,-7.02403 5.28662,-14.78806 12.00308,-18.09155 z"
         style="fill:#f0b761;fill-opacity:1;stroke:none;stroke-width:0.264583px;stroke-linecap:butt;stroke-linejoin:miter;stroke-opacity:1" />
      <path
         sodipodi:nodetypes="ssscss"
         inkscape:connector-curvature="0"
         style="display:inline;fill:#7a4837;fill-opacity:1;stroke:none;stroke-width:0.643962px;stroke-linecap:butt;stroke-linejoin:miter;stroke-opacity:1"
         d="m -192.58642,-216.52021 c -9.374,2.56685 -13.20283,-3.5492 -10.06909,-10.93549 2.39915,-5.65486 8.59639,-8.62688 19.4037,-8.73204 10.69563,-0.10408 18.50872,3.82534 19.67692,11.83065 1.26392,8.66159 -6.61041,10.35423 -13.40201,7.57972 -6.35542,-2.59632 -6.45522,-2.24953 -15.60952,0.25716 z"
         id="path1473-7-6-4" />
      <path
         sodipodi:nodetypes="cccc"
         inkscape:connector-curvature="0"
         id="path1011-5-0-7-4"
         d="m -185.66047,-219.94839 c 0.78169,-1.44115 4.02911,-1.43595 4.73271,0.0449 0.62209,1.30935 -1.0019,3.44437 -2.44918,3.36191 -1.32503,-0.0755 -2.91634,-2.24021 -2.28353,-3.40682 z"
         style="display:inline;fill:#222327;fill-opacity:1;stroke:none;stroke-width:0.372174px;stroke-linecap:butt;stroke-linejoin:miter;stroke-opacity:1" />
      <path
         sodipodi:nodetypes="ccccccc"
         inkscape:connector-curvature="0"
         id="path1013-0-7-3-9"
         d="m -183.40543,-217.50514 c -1.76965,7.46033 -6.71774,5.04352 -9.73239,3.51616 0,0 2.81252,2.71438 4.86942,2.59692 1.51377,-0.0865 4.92092,-2.82173 4.92092,-2.82173 0,0 3.35925,2.8857 5.24472,2.83506 1.72827,-0.0467 4.22303,-2.81582 4.22303,-2.81582 -3.0369,2.25874 -7.80155,3.65446 -9.5257,-3.31059 z"
         style="display:inline;fill:#222327;fill-opacity:1;stroke:none;stroke-width:0.381272px;stroke-linecap:butt;stroke-linejoin:miter;stroke-opacity:1" />
      <g
         style="stroke:none"
         transform="translate(2.0431467,0.49530829)"
         id="g1625">
        <ellipse
           ry="5.0283799"
           rx="5.1223688"
           cy="-222.07321"
           cx="-199.47308"
           id="path992-7-8-6-4-3-8"
           style="display:inline;fill:#ffcc00;fill-opacity:1;stroke:none;stroke-width:1.49808;stroke-linecap:round;stroke-miterlimit:4;stroke-dasharray:none;stroke-opacity:1"
           transform="rotate(0.5754046)" />
        <circle
           r="3.5166144"
           cy="-222.07321"
           cx="-199.47308"
           id="path994-1-0-0-3-6-8"
           style="display:inline;fill:#222327;fill-opacity:1;stroke:none;stroke-width:1.54922;stroke-linecap:round;stroke-miterlimit:4;stroke-dasharray:none;stroke-opacity:1"
           transform="rotate(0.5754046)" />
      </g>
      <g
         id="g1676">
        <ellipse
           ry="5.0283799"
           rx="5.1223688"
           cy="-221.90143"
           cx="-173.33617"
           id="path992-7-3-2-8-3-0"
           style="display:inline;fill:#ffcc00;fill-opacity:1;stroke:none;stroke-width:1.49808;stroke-linecap:round;stroke-miterlimit:4;stroke-dasharray:none;stroke-opacity:1"
           transform="rotate(0.5754046)" />
        <circle
           r="3.5166144"
           cy="-221.90143"
           cx="-173.33617"
           id="path994-1-07-1-6-5-4"
           style="display:inline;fill:#222327;fill-opacity:1;stroke:none;stroke-width:1.54922;stroke-linecap:round;stroke-miterlimit:4;stroke-dasharray:none;stroke-opacity:1"
           transform="rotate(0.5754046)" />
      </g>
      <g
         transform="translate(1.3972989,-1.5460156)"
         id="g1607">
        <path
           id="path1569-4-7-0"
           d="m -191.80391,-243.55419 c 4.33231,-3.67031 8.16632,-2.63065 11.69398,1.30476 1.77412,2.18716 3.40431,4.80229 5.68273,5.49007 -3.25687,3.2173 -7.21727,5.2206 -11.54195,4.28975 -6.11647,-1.31647 -9.6953,-4.84901 -5.83476,-11.08458 z"
           style="display:inline;fill:#50c058;fill-opacity:1;stroke:none;stroke-width:0.445616px;stroke-linecap:butt;stroke-linejoin:miter;stroke-opacity:1"
           inkscape:connector-curvature="0" />
        <path
           id="path1573-2-4-05"
           d="m -194.72053,-243.05006 c 0,0 2.88704,1.79848 4.55743,1.96308 1.30214,0.12851 3.73367,-0.81228 3.73367,-0.81228 0,0 -2.71296,0.66952 -2.6199,1.59594 0.11731,1.16774 2.37626,1.37347 3.68902,1.83662 1.88012,0.6633 5.88066,1.30827 5.88066,1.30827 0,0 -2.2437,0.38263 -3.38594,0.29788 -0.31003,-0.0231 1.88074,2.62934 1.57776,2.53262 -0.30296,-0.097 -3.09953,-2.94365 -3.39915,-3.05542 -0.59927,-0.22341 -1.19563,-0.41714 -1.80422,-0.34407 -0.68526,0.0816 -1.86901,1.59227 -1.86901,1.59227 -0.1418,-1.91339 -0.80164,-2.59826 -1.97777,-3.28236 -1.66696,-0.96958 -4.71184,-2.77652 -4.71184,-2.77652 z"
           style="display:inline;fill:#34a83c;fill-opacity:1;stroke:none;stroke-width:0.486522px;stroke-linecap:butt;stroke-linejoin:miter;stroke-opacity:1"
           inkscape:connector-curvature="0" />
      </g>
    </g>
    <ellipse
       style="opacity:1;fill:#f2f1f0;fill-opacity:1;fill-rule:nonzero;stroke:none;stroke-width:0.529167;stroke-linecap:round;stroke-linejoin:round;stroke-miterlimit:4;stroke-dasharray:none;stroke-dashoffset:0;stroke-opacity:1;paint-order:stroke markers fill"
       id="path3546-8"
       cx="41.58485"
       cy="28.024229"
       rx="1.6097519"
       ry="0.7429623"
       transform="rotate(-0.53478035)" />
    <ellipse
       style="opacity:1;fill:#f2f1f0;fill-opacity:1;fill-rule:nonzero;stroke:none;stroke-width:0.529167;stroke-linecap:round;stroke-linejoin:round;stroke-miterlimit:4;stroke-dasharray:none;stroke-dashoffset:0;stroke-opacity:1;paint-order:stroke markers fill"
       id="path3546-8-6"
       cx="14.750834"
       cy="28.873661"
       rx="1.6097519"
       ry="0.7429623"
       transform="rotate(-5.061229)" />
  </g>
</svg>
